ISO-10303-21;
HEADER;
FILE_DESCRIPTION (( 'STEP AP203' ),
    '1' );
FILE_NAME ('228-2500-143.step',
    '2022-07-07T19:24:36',
    ( '' ),
    ( '' ),
    'SwSTEP 2.0',
    'SolidWorks 2021',
    '' );
FILE_SCHEMA (( 'CONFIG_CONTROL_DESIGN' ));
ENDSEC;

DATA;
#1 = ORIENTED_EDGE ( 'NONE', *, *, #590, .T. ) ;
#2 = EDGE_CURVE ( 'NONE', #988, #184, #120, .T. ) ;
#3 = CARTESIAN_POINT ( 'NONE',  ( 8.009289338111479140, 8.550865784914998713, 6.845278486142000851 ) ) ;
#4 = DIRECTION ( 'NONE',  ( 1.000000000000000000, 0.000000000000000000, 0.000000000000000000 ) ) ;
#5 = B_SPLINE_CURVE_WITH_KNOTS ( 'NONE', 3,
 ( #952, #44, #208, #585 ),
 .UNSPECIFIED., .F., .F.,
 ( 4, 4 ),
 ( 0.000000000000000000, 1.000000000000000000 ),
 .UNSPECIFIED. ) ;
#6 = PERSON_AND_ORGANIZATION ( #961, #923 ) ;
#7 = DIRECTION ( 'NONE',  ( 1.000000000000000000, 0.000000000000000000, 0.000000000000000000 ) ) ;
#8 = VERTEX_POINT ( 'NONE', #1021 ) ;
#9 = CARTESIAN_POINT ( 'NONE',  ( 6.723049009522249264, 8.550865784914998713, 3.495277570962260771 ) ) ;
#10 = CARTESIAN_POINT ( 'NONE',  ( -1.409440550048999929, 8.550865784914998713, 9.345278486141999963 ) ) ;
#11 = AXIS2_PLACEMENT_3D ( 'NONE', #436, #1075, #71 ) ;
#12 = AXIS2_PLACEMENT_3D ( 'NONE', #1023, #778, #578 ) ;
#13 = FACE_OUTER_BOUND ( 'NONE', #798, .T. ) ;
#14 = PRODUCT_DEFINITION_FORMATION_WITH_SPECIFIED_SOURCE ( 'ANY', '', #463, .NOT_KNOWN. ) ;
#15 = B_SPLINE_CURVE_WITH_KNOTS ( 'NONE', 3,
 ( #332, #1152, #432, #153 ),
 .UNSPECIFIED., .F., .F.,
 ( 4, 4 ),
 ( 0.0008926373332190540733, 0.003187973499179809662 ),
 .UNSPECIFIED. ) ;
#16 = VERTEX_POINT ( 'NONE', #545 ) ;
#17 = ADVANCED_FACE ( 'NONE', ( #13 ), #379, .F. ) ;
#18 = CARTESIAN_POINT ( 'NONE',  ( 6.775703766370509307, 6.264865784915000013, 3.295278486142001029 ) ) ;
#19 = DIRECTION ( 'NONE',  ( 0.000000000000000000, -0.1736481776669245303, 0.9848077530122091305 ) ) ;
#20 = LINE ( 'NONE', #403, #1126 ) ;
#21 = VERTEX_POINT ( 'NONE', #459 ) ;
#22 = DIRECTION ( 'NONE',  ( 0.000000000000000000, -1.000000000000000000, 0.000000000000000000 ) ) ;
#23 = EDGE_CURVE ( 'NONE', #786, #799, #461, .T. ) ;
#24 = CARTESIAN_POINT ( 'NONE',  ( 4.090559449950999849, 3.978865784914999981, 12.20854287545157568 ) ) ;
#25 = CARTESIAN_POINT ( 'NONE',  ( 7.594970660866580126, 3.361412218291979670, 9.454152209272308482 ) ) ;
#26 = ORIENTED_EDGE ( 'NONE', *, *, #1124, .T. ) ;
#27 = DIRECTION ( 'NONE',  ( 0.000000000000000000, 0.000000000000000000, 1.000000000000000000 ) ) ;
#28 = DIRECTION ( 'NONE',  ( 0.000000000000000000, 1.000000000000000000, 0.000000000000000000 ) ) ;
#29 = DIRECTION ( 'NONE',  ( 0.000000000000000000, 0.000000000000000000, 1.000000000000000000 ) ) ;
#30 = APPROVAL ( #660, 'UNSPECIFIED' ) ;
#31 = FACE_OUTER_BOUND ( 'NONE', #1072, .T. ) ;
#32 = ADVANCED_FACE ( 'NONE', ( #845 ), #1144, .T. ) ;
#33 = AXIS2_PLACEMENT_3D ( 'NONE', #699, #533, #149 ) ;
#34 = ORIENTED_EDGE ( 'NONE', *, *, #1166, .T. ) ;
#35 = CARTESIAN_POINT ( 'NONE',  ( 0.5855600292815448249, 9.167481534666469756, 9.454004479552965634 ) ) ;
#36 = VECTOR ( 'NONE', #557, 1000.000000000000000 ) ;
#37 = DIRECTION ( 'NONE',  ( 0.000000000000000000, 0.000000000000000000, 1.000000000000000000 ) ) ;
#38 = CARTESIAN_POINT ( 'NONE',  ( 4.090559449950999849, 8.550865784914998713, 3.982014096832425576 ) ) ;
#39 = LINE ( 'NONE', #873, #249 ) ;
#40 = ORIENTED_EDGE ( 'NONE', *, *, #703, .F. ) ;
#41 = DIRECTION ( 'NONE',  ( 1.000000000000000000, 0.000000000000000000, 0.000000000000000000 ) ) ;
#42 = CARTESIAN_POINT ( 'NONE',  ( 4.090559449950999849, 8.550865784914998713, 8.095278486141999963 ) ) ;
#43 = CARTESIAN_POINT ( 'NONE',  ( 4.090559449950999849, 3.978865784914999981, 8.095278486141999963 ) ) ;
#44 = CARTESIAN_POINT ( 'NONE',  ( 7.595558870620454428, 9.167481534666466203, 6.736552492731040509 ) ) ;
#45 = ORIENTED_EDGE ( 'NONE', *, *, #511, .T. ) ;
#46 = DIRECTION ( 'NONE',  ( 1.000000000000000000, 0.000000000000000000, 0.000000000000000000 ) ) ;
#47 = EDGE_CURVE ( 'NONE', #786, #404, #614, .T. ) ;
#48 = ADVANCED_FACE ( 'NONE', ( #935 ), #1017, .F. ) ;
#49 = DIRECTION ( 'NONE',  ( 0.000000000000000000, 0.000000000000000000, 1.000000000000000000 ) ) ;
#50 = AXIS2_PLACEMENT_3D ( 'NONE', #1116, #565, #475 ) ;
#51 = ORIENTED_EDGE ( 'NONE', *, *, #713, .F. ) ;
#52 = EDGE_LOOP ( 'NONE', ( #433, #723, #305, #458 ) ) ;
#53 = PLANE ( 'NONE',  #1168 ) ;
#54 = AXIS2_PLACEMENT_3D ( 'NONE', #1129, #223, #787 ) ;
#55 = APPROVAL_PERSON_ORGANIZATION ( #932, #710, #1007 ) ;
#56 = EDGE_CURVE ( 'NONE', #1145, #632, #912, .T. ) ;
#57 = DIRECTION ( 'NONE',  ( 0.000000000000000000, 0.000000000000000000, 1.000000000000000000 ) ) ;
#58 = ORIENTED_EDGE ( 'NONE', *, *, #105, .T. ) ;
#59 = CARTESIAN_POINT ( 'NONE',  ( 6.890559449950999671, 9.439865784914999836, 8.095278486141999963 ) ) ;
#60 = CARTESIAN_POINT ( 'NONE',  ( 0.7767940306976149900, 3.089865784915000191, 6.688523800292180965 ) ) ;
#61 = ORIENTED_EDGE ( 'NONE', *, *, #424, .F. ) ;
#62 = EDGE_LOOP ( 'NONE', ( #142, #715, #178, #968 ) ) ;
#63 = CARTESIAN_POINT ( 'NONE',  ( 4.090559449950999849, 3.978865784914999981, 8.095278486141999963 ) ) ;
#64 = ORIENTED_EDGE ( 'NONE', *, *, #169, .F. ) ;
#65 = AXIS2_PLACEMENT_3D ( 'NONE', #1181, #1104, #1093 ) ;
#66 = DIRECTION ( 'NONE',  ( 0.000000000000000000, 0.000000000000000000, 1.000000000000000000 ) ) ;
#67 = AXIS2_PLACEMENT_3D ( 'NONE', #657, #836, #278 ) ;
#68 = AXIS2_PLACEMENT_3D ( 'NONE', #205, #1047, #501 ) ;
#69 = AXIS2_PLACEMENT_3D ( 'NONE', #1037, #115, #1028 ) ;
#70 = AXIS2_PLACEMENT_3D ( 'NONE', #79, #1073, #356 ) ;
#71 = DIRECTION ( 'NONE',  ( 0.000000000000000000, 0.000000000000000000, -1.000000000000000000 ) ) ;
#72 = ORIENTED_EDGE ( 'NONE', *, *, #188, .F. ) ;
#73 = CARTESIAN_POINT ( 'NONE',  ( 0.7767940306976197640, 3.089865784915000191, 9.502033171991824290 ) ) ;
#74 = VERTEX_POINT ( 'NONE', #182 ) ;
#75 = PERSON_AND_ORGANIZATION_ROLE ( 'classification_officer' ) ;
#76 = CARTESIAN_POINT ( 'NONE',  ( 0.5861482390354250116, 3.361412218291989884, 9.454152209272306706 ) ) ;
#77 = ORIENTED_EDGE ( 'NONE', *, *, #547, .T. ) ;
#78 = DIRECTION ( 'NONE',  ( 0.000000000000000000, 0.000000000000000000, 1.000000000000000000 ) ) ;
#79 = CARTESIAN_POINT ( 'NONE',  ( 4.090559449950999849, 6.264865784915000013, 8.095278486141999963 ) ) ;
#80 = VERTEX_POINT ( 'NONE', #821 ) ;
#81 = ADVANCED_FACE ( 'NONE', ( #365 ), #558, .T. ) ;
#82 = CARTESIAN_POINT ( 'NONE',  ( 9.590559449950998072, 3.978865784914999981, 3.495277570962260771 ) ) ;
#83 = VERTEX_POINT ( 'NONE', #3 ) ;
#84 = LINE ( 'NONE', #466, #1123 ) ;
#85 = CARTESIAN_POINT ( 'NONE',  ( 4.090559449950999849, 6.264865784915000013, 8.095278486141999963 ) ) ;
#86 = ORIENTED_EDGE ( 'NONE', *, *, #908, .F. ) ;
#87 = AXIS2_PLACEMENT_3D ( 'NONE', #1110, #905, #78 ) ;
#88 = AXIS2_PLACEMENT_3D ( 'NONE', #669, #664, #1025 ) ;
#89 = CIRCLE ( 'NONE', #919, 2.800000000000000266 ) ;
#90 = PERSON_AND_ORGANIZATION_ROLE ( 'design_supplier' ) ;
#91 = ADVANCED_FACE ( 'NONE', ( #640 ), #299, .F. ) ;
#92 = CIRCLE ( 'NONE', #333, 5.300000915179739813 ) ;
#93 = CARTESIAN_POINT ( 'NONE',  ( 6.775703766370509307, 6.264865784915000013, 12.89527848614200067 ) ) ;
#94 = ORIENTED_EDGE ( 'NONE', *, *, #1173, .F. ) ;
#95 = DIRECTION ( 'NONE',  ( 0.000000000000000000, 1.000000000000000000, 0.000000000000000000 ) ) ;
#96 = CARTESIAN_POINT ( 'NONE',  ( 4.090559449950999849, 6.264865784915000013, 8.095278486141999963 ) ) ;
#97 = ORIENTED_EDGE ( 'NONE', *, *, #1119, .F. ) ;
#98 = DIRECTION ( 'NONE',  ( 0.000000000000000000, 1.000000000000000000, 0.000000000000000000 ) ) ;
#99 = EDGE_CURVE ( 'NONE', #143, #786, #84, .T. ) ;
#100 = ORIENTED_EDGE ( 'NONE', *, *, #804, .F. ) ;
#101 = DIRECTION ( 'NONE',  ( 0.000000000000000000, 0.000000000000000000, -1.000000000000000000 ) ) ;
#102 = ORIENTED_EDGE ( 'NONE', *, *, #169, .T. ) ;
#103 = APPROVAL_STATUS ( 'not_yet_approved' ) ;
#104 = FACE_BOUND ( 'NONE', #870, .T. ) ;
#105 = EDGE_CURVE ( 'NONE', #901, #931, #193, .T. ) ;
#106 = DIRECTION ( 'NONE',  ( 0.000000000000000000, -0.8660254037844390407, -0.4999999999999995004 ) ) ;
#107 = ORIENTED_EDGE ( 'NONE', *, *, #925, .F. ) ;
#108 = CARTESIAN_POINT ( 'NONE',  ( -1.409440550048999929, 3.978865784914999981, 6.845278486142000851 ) ) ;
#109 = CONICAL_SURFACE ( 'NONE', #206, 5.500000000000000000, 0.08726646259971625186 ) ;
#110 = CIRCLE ( 'NONE', #963, 5.300000915179739813 ) ;
#111 = PLANE ( 'NONE',  #443 ) ;
#112 = EDGE_LOOP ( 'NONE', ( #210, #102, #1009, #455, #1063, #709 ) ) ;
#113 = ADVANCED_FACE ( 'NONE', ( #744 ), #738, .F. ) ;
#114 = DIRECTION ( 'NONE',  ( 0.000000000000000000, 1.000000000000000000, 0.000000000000000000 ) ) ;
#115 = DIRECTION ( 'NONE',  ( 0.000000000000000000, 1.000000000000000000, 0.000000000000000000 ) ) ;
#116 = CARTESIAN_POINT ( 'NONE',  ( -1.409440550048999929, 8.550865784914998713, 9.345278486141999963 ) ) ;
#117 = ORIENTED_EDGE ( 'NONE', *, *, #928, .F. ) ;
#118 = DIRECTION ( 'NONE',  ( 0.000000000000000000, 0.000000000000000000, 1.000000000000000000 ) ) ;
#119 = DIRECTION ( 'NONE',  ( 0.000000000000000000, 1.000000000000000000, 0.000000000000000000 ) ) ;
#120 = B_SPLINE_CURVE_WITH_KNOTS ( 'NONE', 3,
 ( #304, #999, #748, #653 ),
 .UNSPECIFIED., .F., .F.,
 ( 4, 4 ),
 ( 0.000000000000000000, 1.000000000000000000 ),
 .UNSPECIFIED. ) ;
#121 = DIRECTION ( 'NONE',  ( 1.000000000000000000, 0.000000000000000000, 0.000000000000000000 ) ) ;
#122 = CARTESIAN_POINT ( 'NONE',  ( 1.669600703123709673, 3.089865784915000191, 9.502033171991824290 ) ) ;
#123 = ORIENTED_EDGE ( 'NONE', *, *, #1033, .T. ) ;
#124 = DIRECTION ( 'NONE',  ( 0.000000000000000000, 0.000000000000000000, 1.000000000000000000 ) ) ;
#125 = DIRECTION ( 'NONE',  ( 0.000000000000000000, 0.000000000000000000, 1.000000000000000000 ) ) ;
#126 = ADVANCED_FACE ( 'NONE', ( #646 ), #271, .T. ) ;
#127 = FACE_OUTER_BOUND ( 'NONE', #344, .T. ) ;
#128 = VERTEX_POINT ( 'NONE', #481 ) ;
#129 = CARTESIAN_POINT ( 'NONE',  ( -1.409440550048999929, 3.089865784915000191, 9.502033171991824290 ) ) ;
#130 = AXIS2_PLACEMENT_3D ( 'NONE', #581, #948, #118 ) ;
#131 = B_SPLINE_CURVE_WITH_KNOTS ( 'NONE', 3,
 ( #174, #1102, #1089, #933 ),
 .UNSPECIFIED., .F., .F.,
 ( 4, 4 ),
 ( 0.0008926373332190470260, 0.003187973499179810096 ),
 .UNSPECIFIED. ) ;
#132 = AXIS2_PLACEMENT_3D ( 'NONE', #380, #741, #819 ) ;
#133 = DIRECTION ( 'NONE',  ( -0.000000000000000000, 1.000000000000000000, 0.000000000000000000 ) ) ;
#134 = DIRECTION ( 'NONE',  ( -1.000000000000000000, 0.000000000000000000, 0.000000000000000000 ) ) ;
#135 = VERTEX_POINT ( 'NONE', #841 ) ;
#136 = CARTESIAN_POINT ( 'NONE',  ( 1.639764739672875615, 3.381065076490736843, 6.739870092160170856 ) ) ;
#137 = CARTESIAN_POINT ( 'NONE',  ( 6.596053413224509221, 3.978865784914999981, 6.845278486142000851 ) ) ;
#138 = ORIENTED_EDGE ( 'NONE', *, *, #984, .T. ) ;
#139 = DIRECTION ( 'NONE',  ( -1.000000000000000000, 0.000000000000000000, 0.000000000000000000 ) ) ;
#140 = ADVANCED_FACE ( 'NONE', ( #31 ), #111, .T. ) ;
#141 = CARTESIAN_POINT ( 'NONE',  ( 6.569542071418666751, 3.677498374954504268, 6.792139280659738709 ) ) ;
#142 = ORIENTED_EDGE ( 'NONE', *, *, #316, .F. ) ;
#143 = VERTEX_POINT ( 'NONE', #1143 ) ;
#144 = CIRCLE ( 'NONE', #806, 2.800000000000000266 ) ;
#145 = DIRECTION ( 'NONE',  ( 1.000000000000000000, 0.000000000000000000, 0.000000000000000000 ) ) ;
#146 = CIRCLE ( 'NONE', #830, 1.574999999999999956 ) ;
#147 = ADVANCED_FACE ( 'NONE', ( #1038 ), #1043, .F. ) ;
#148 = AXIS2_PLACEMENT_3D ( 'NONE', #734, #724, #994 ) ;
#149 = DIRECTION ( 'NONE',  ( 0.000000000000000000, 0.000000000000000000, 1.000000000000000000 ) ) ;
#150 = ORIENTED_EDGE ( 'NONE', *, *, #424, .T. ) ;
#151 = CC_DESIGN_DATE_AND_TIME_ASSIGNMENT ( #666, #777, ( #602 ) ) ;
#152 = EDGE_CURVE ( 'NONE', #976, #222, #573, .T. ) ;
#153 = CARTESIAN_POINT ( 'NONE',  ( 1.405415133531489724, 6.264865784915000013, 3.295278486142001029 ) ) ;
#154 = EDGE_LOOP ( 'NONE', ( #485, #172, #1160, #310 ) ) ;
#155 = EDGE_LOOP ( 'NONE', ( #434, #700, #1, #1092, #635 ) ) ;
#156 = FACE_BOUND ( 'NONE', #112, .T. ) ;
#157 = APPLICATION_CONTEXT ( 'configuration controlled 3d designs of mechanical parts and assemblies' ) ;
#158 = FACE_OUTER_BOUND ( 'NONE', #548, .T. ) ;
#159 = EDGE_CURVE ( 'NONE', #492, #1112, #671, .T. ) ;
#160 = ORIENTED_EDGE ( 'NONE', *, *, #47, .T. ) ;
#161 = ORIENTED_EDGE ( 'NONE', *, *, #1062, .F. ) ;
#162 = DIRECTION ( 'NONE',  ( 0.000000000000000000, 1.000000000000000000, 0.000000000000000000 ) ) ;
#163 = EDGE_LOOP ( 'NONE', ( #86, #289, #559, #911 ) ) ;
#164 = AXIS2_PLACEMENT_3D ( 'NONE', #971, #985, #1157 ) ;
#165 = CIRCLE ( 'NONE', #54, 5.300000915179739813 ) ;
#166 = APPROVAL_DATE_TIME ( #281, #1079 ) ;
#167 = CARTESIAN_POINT ( 'NONE',  ( 1.585065486677489588, 8.550865784914998713, 6.845278486142000851 ) ) ;
#168 = ORIENTED_EDGE ( 'NONE', *, *, #351, .T. ) ;
#169 = EDGE_CURVE ( 'NONE', #694, #128, #486, .T. ) ;
#170 = DIRECTION ( 'NONE',  ( 0.000000000000000000, 0.000000000000000000, 1.000000000000000000 ) ) ;
#171 = DIRECTION ( 'NONE',  ( 0.000000000000000000, -0.9848077530122085754, 0.1736481776669274169 ) ) ;
#172 = ORIENTED_EDGE ( 'NONE', *, *, #915, .T. ) ;
#173 =( LENGTH_UNIT ( ) NAMED_UNIT ( * ) SI_UNIT ( .MILLI., .METRE. ) );
#174 = CARTESIAN_POINT ( 'NONE',  ( 6.723049009522249264, 3.978865784914999981, 3.495277570962260771 ) ) ;
#175 = ORIENTED_EDGE ( 'NONE', *, *, #884, .F. ) ;
#176 = DIRECTION ( 'NONE',  ( -0.000000000000000000, 1.000000000000000000, 0.000000000000000000 ) ) ;
#177 = CARTESIAN_POINT ( 'NONE',  ( 6.758324181800454689, 7.026869697345111021, 12.82861178224196053 ) ) ;
#178 = ORIENTED_EDGE ( 'NONE', *, *, #752, .T. ) ;
#179 = APPLICATION_PROTOCOL_DEFINITION ( 'international standard', 'config_control_design', 1994, #157 ) ;
#180 = DIRECTION ( 'NONE',  ( 0.000000000000000000, 0.000000000000000000, -1.000000000000000000 ) ) ;
#181 = ORIENTED_EDGE ( 'NONE', *, *, #453, .T. ) ;
#182 = CARTESIAN_POINT ( 'NONE',  ( 6.511518196778290246, 9.439865784914999836, 6.688523800292180965 ) ) ;
#183 = LINE ( 'NONE', #1011, #36 ) ;
#184 = VERTEX_POINT ( 'NONE', #785 ) ;
#185 = ADVANCED_FACE ( 'NONE', ( #202 ), #367, .T. ) ;
#186 = AXIS2_PLACEMENT_3D ( 'NONE', #536, #815, #656 ) ;
#187 = PERSON_AND_ORGANIZATION ( #961, #923 ) ;
#188 = EDGE_CURVE ( 'NONE', #632, #988, #881, .T. ) ;
#189 = CIRCLE ( 'NONE', #897, 3.600000000000000977 ) ;
#190 = CARTESIAN_POINT ( 'NONE',  ( 1.669600703123709673, 9.439865784914999836, 6.688523800292180965 ) ) ;
#191 = AXIS2_PLACEMENT_3D ( 'NONE', #1100, #476, #263 ) ;
#192 = ORIENTED_EDGE ( 'NONE', *, *, #713, .T. ) ;
#193 = B_SPLINE_CURVE_WITH_KNOTS ( 'NONE', 3,
 ( #1192, #920, #290, #1010 ),
 .UNSPECIFIED., .F., .F.,
 ( 4, 4 ),
 ( 0.0008926373332190540733, 0.003187973499179809662 ),
 .UNSPECIFIED. ) ;
#194 = DIRECTION ( 'NONE',  ( 0.000000000000000000, -1.000000000000000000, 0.000000000000000000 ) ) ;
#195 = ORIENTED_EDGE ( 'NONE', *, *, #152, .F. ) ;
#196 = FACE_OUTER_BOUND ( 'NONE', #154, .T. ) ;
#197 = DIRECTION ( 'NONE',  ( -1.000000000000000000, 0.000000000000000000, 0.000000000000000000 ) ) ;
#198 = CARTESIAN_POINT ( 'NONE',  ( 7.796625483835655679, 3.657745551625390057, 6.788656324961648281 ) ) ;
#199 = ORIENTED_EDGE ( 'NONE', *, *, #56, .F. ) ;
#200 = FACE_OUTER_BOUND ( 'NONE', #269, .T. ) ;
#201 = EDGE_CURVE ( 'NONE', #550, #128, #39, .T. ) ;
#202 = FACE_OUTER_BOUND ( 'NONE', #1162, .T. ) ;
#203 = ORIENTED_EDGE ( 'NONE', *, *, #226, .F. ) ;
#204 = CARTESIAN_POINT ( 'NONE',  ( 6.775703766370509307, 6.264865784915000013, 3.295278486142001029 ) ) ;
#205 = CARTESIAN_POINT ( 'NONE',  ( 4.090559449950999849, 8.550865784914998713, 8.095278486141999963 ) ) ;
#206 = AXIS2_PLACEMENT_3D ( 'NONE', #1003, #549, #910 ) ;
#207 = VECTOR ( 'NONE', #596, 1000.000000000000114 ) ;
#208 = CARTESIAN_POINT ( 'NONE',  ( 7.797180333224124738, 8.871148201333129535, 6.788804054680981359 ) ) ;
#209 = CC_DESIGN_APPROVAL ( #1079, ( #1098 ) ) ;
#210 = ORIENTED_EDGE ( 'NONE', *, *, #703, .T. ) ;
#211 = DIRECTION ( 'NONE',  ( 1.000000000000000000, 0.000000000000000000, 0.000000000000000000 ) ) ;
#212 = PLANE ( 'NONE',  #1149 ) ;
#213 = FACE_OUTER_BOUND ( 'NONE', #439, .T. ) ;
#214 = CARTESIAN_POINT ( 'NONE',  ( 1.611576828483333390, 3.677498374954514482, 9.398417691624262105 ) ) ;
#215 =( BOUNDED_CURVE ( )  B_SPLINE_CURVE ( 3, ( #137, #141, #990, #714 ),
 .UNSPECIFIED., .F., .T. ) 
 B_SPLINE_CURVE_WITH_KNOTS ( ( 4, 4 ),
 ( 2.033566444586989874, 2.097182935084765276 ),
 .UNSPECIFIED. ) 
 CURVE ( )  GEOMETRIC_REPRESENTATION_ITEM ( )  RATIONAL_B_SPLINE_CURVE ( ( 1.000000000000000000, 0.9996627736123069319, 0.9996627736123069319, 1.000000000000000000 ) ) 
 REPRESENTATION_ITEM ( '' )  );
#216 = ORIENTED_EDGE ( 'NONE', *, *, #23, .T. ) ;
#217 = CARTESIAN_POINT ( 'NONE',  ( 6.723049009522249264, 3.978865784914999981, 3.495277570962260771 ) ) ;
#218 = CARTESIAN_POINT ( 'NONE',  ( 6.511518196778290246, 9.439865784914999836, 9.502033171991824290 ) ) ;
#219 = EDGE_CURVE ( 'NONE', #527, #83, #5, .T. ) ;
#220 = DIRECTION ( 'NONE',  ( 0.000000000000000000, 1.000000000000000000, 0.000000000000000000 ) ) ;
#221 = DIRECTION ( 'NONE',  ( 0.000000000000000000, 0.000000000000000000, 1.000000000000000000 ) ) ;
#222 = VERTEX_POINT ( 'NONE', #502 ) ;
#223 = DIRECTION ( 'NONE',  ( 0.000000000000000000, 1.000000000000000000, 0.000000000000000000 ) ) ;
#224 = PLANE ( 'NONE',  #448 ) ;
#225 = PERSON_AND_ORGANIZATION ( #961, #923 ) ;
#226 = EDGE_CURVE ( 'NONE', #654, #1056, #939, .T. ) ;
#227 = DIRECTION ( 'NONE',  ( 1.000000000000000000, 0.000000000000000000, 0.000000000000000000 ) ) ;
#228 = VECTOR ( 'NONE', #593, 1000.000000000000000 ) ;
#229 = DIRECTION ( 'NONE',  ( 0.000000000000000000, -1.000000000000000000, 0.000000000000000000 ) ) ;
#230 = AXIS2_PLACEMENT_3D ( 'NONE', #921, #622, #171 ) ;
#231 = ORIENTED_EDGE ( 'NONE', *, *, #341, .T. ) ;
#232 = PLANE ( 'NONE',  #848 ) ;
#233 = VECTOR ( 'NONE', #234, 1000.000000000000000 ) ;
#234 = DIRECTION ( 'NONE',  ( 1.000000000000000000, 0.000000000000000000, 0.000000000000000000 ) ) ;
#235 = APPROVAL_PERSON_ORGANIZATION ( #839, #1079, #286 ) ;
#236 =( BOUNDED_CURVE ( )  B_SPLINE_CURVE ( 3, ( #335, #136, #422, #1122 ),
 .UNSPECIFIED., .F., .T. ) 
 B_SPLINE_CURVE_WITH_KNOTS ( ( 4, 4 ),
 ( 4.186002372094824509, 4.249618862592594581 ),
 .UNSPECIFIED. ) 
 CURVE ( )  GEOMETRIC_REPRESENTATION_ITEM ( )  RATIONAL_B_SPLINE_CURVE ( ( 1.000000000000000000, 0.9996627736123069319, 0.9996627736123069319, 1.000000000000000000 ) ) 
 REPRESENTATION_ITEM ( '' )  );
#237 = EDGE_CURVE ( 'NONE', #893, #442, #20, .T. ) ;
#238 = DIRECTION ( 'NONE',  ( -1.000000000000000000, 0.000000000000000000, 0.000000000000000000 ) ) ;
#239 = ORIENTED_EDGE ( 'NONE', *, *, #697, .T. ) ;
#240 = FACE_OUTER_BOUND ( 'NONE', #774, .T. ) ;
#241 = FACE_OUTER_BOUND ( 'NONE', #52, .T. ) ;
#242 = B_SPLINE_CURVE_WITH_KNOTS ( 'NONE', 3,
 ( #745, #1105, #643, #650 ),
 .UNSPECIFIED., .F., .F.,
 ( 4, 4 ),
 ( 0.000000000000000000, 1.000000000000000000 ),
 .UNSPECIFIED. ) ;
#243 = CARTESIAN_POINT ( 'NONE',  ( 4.090559449950999849, 9.439865784914999836, 8.095278486141999963 ) ) ;
#244 = ORIENTED_EDGE ( 'NONE', *, *, #655, .T. ) ;
#245 = ADVANCED_FACE ( 'NONE', ( #760 ), #790, .T. ) ;
#246 = CARTESIAN_POINT ( 'NONE',  ( 2.515559449950999671, 8.550865784914998713, 8.095278486141999963 ) ) ;
#247 = CARTESIAN_POINT ( 'NONE',  ( 4.090559449950999849, 8.550865784914998713, 8.095278486141999963 ) ) ;
#248 = ORIENTED_EDGE ( 'NONE', *, *, #606, .F. ) ;
#249 = VECTOR ( 'NONE', #314, 1000.000000000000000 ) ;
#250 = AXIS2_PLACEMENT_3D ( 'NONE', #63, #525, #57 ) ;
#251 = CC_DESIGN_PERSON_AND_ORGANIZATION_ASSIGNMENT ( #6, #1107, ( #1098 ) ) ;
#252 = LINE ( 'NONE', #328, #233 ) ;
#253 = AXIS2_PLACEMENT_3D ( 'NONE', #1045, #412, #405 ) ;
#254 = AXIS2_PLACEMENT_3D ( 'NONE', #296, #924, #562 ) ;
#255 = CARTESIAN_POINT ( 'NONE',  ( -1.409440550048999929, 3.089865784915000191, 9.502033171991824290 ) ) ;
#256 = EDGE_LOOP ( 'NONE', ( #199, #1140, #936, #720 ) ) ;
#257 = ORIENTED_EDGE ( 'NONE', *, *, #1033, .F. ) ;
#258 = FACE_OUTER_BOUND ( 'NONE', #580, .T. ) ;
#259 = ADVANCED_FACE ( 'NONE', ( #1030 ), #579, .F. ) ;
#260 = LINE ( 'NONE', #890, #690 ) ;
#261 = ORIENTED_EDGE ( 'NONE', *, *, #804, .T. ) ;
#262 = ORIENTED_EDGE ( 'NONE', *, *, #159, .T. ) ;
#263 = DIRECTION ( 'NONE',  ( 0.000000000000000000, 0.000000000000000000, 1.000000000000000000 ) ) ;
#264 =( NAMED_UNIT ( * ) PLANE_ANGLE_UNIT ( ) SI_UNIT ( $, .RADIAN. ) );
#265 = EDGE_CURVE ( 'NONE', #128, #135, #800, .T. ) ;
#266 = CARTESIAN_POINT ( 'NONE',  ( 6.775703766370509307, 6.264865784915000013, 12.89527848614200067 ) ) ;
#267 = ADVANCED_FACE ( 'NONE', ( #857 ), #862, .F. ) ;
#268 = ORIENTED_EDGE ( 'NONE', *, *, #201, .T. ) ;
#269 = EDGE_LOOP ( 'NONE', ( #842, #339, #1039, #1077, #100 ) ) ;
#270 = FACE_BOUND ( 'NONE', #1159, .T. ) ;
#271 = CONICAL_SURFACE ( 'NONE', #826, 4.113264389309574831, 0.5235987755982982605 ) ;
#272 = ORIENTED_EDGE ( 'NONE', *, *, #553, .F. ) ;
#273 = AXIS2_PLACEMENT_3D ( 'NONE', #1071, #807, #1055 ) ;
#274 = AXIS2_PLACEMENT_3D ( 'NONE', #291, #837, #4 ) ;
#275 = APPROVAL_DATE_TIME ( #554, #710 ) ;
#276 = CARTESIAN_POINT ( 'NONE',  ( 1.585065486677489588, 8.550865784914998713, 6.845278486142000851 ) ) ;
#277 = ADVANCED_FACE ( 'NONE', ( #127 ), #687, .F. ) ;
#278 = DIRECTION ( 'NONE',  ( 0.000000000000000000, 0.000000000000000000, -1.000000000000000000 ) ) ;
#279 = FACE_OUTER_BOUND ( 'NONE', #631, .T. ) ;
#280 = ORIENTED_EDGE ( 'NONE', *, *, #462, .F. ) ;
#281 = DATE_AND_TIME ( #1174, #944 ) ;
#282 = FACE_BOUND ( 'NONE', #474, .T. ) ;
#283 = VERTEX_POINT ( 'NONE', #450 ) ;
#284 = DIRECTION ( 'NONE',  ( 0.000000000000000000, 0.000000000000000000, 1.000000000000000000 ) ) ;
#285 = DIRECTION ( 'NONE',  ( 0.000000000000000000, 1.000000000000000000, 0.000000000000000000 ) ) ;
#286 = APPROVAL_ROLE ( '' ) ;
#287 = CARTESIAN_POINT ( 'NONE',  ( 0.3844934160663897593, 3.657745551625324776, 9.401900647322367632 ) ) ;
#288 = PRODUCT_DEFINITION_SHAPE ( 'NONE', 'NONE',  #1098 ) ;
#289 = ORIENTED_EDGE ( 'NONE', *, *, #56, .T. ) ;
#290 = CARTESIAN_POINT ( 'NONE',  ( 1.422794718101539901, 7.026869697345111021, 12.82861178224196053 ) ) ;
#291 = CARTESIAN_POINT ( 'NONE',  ( 6.690559449950999493, 3.978865784914999981, 8.095278486141999963 ) ) ;
#292 = ORIENTED_EDGE ( 'NONE', *, *, #1024, .T. ) ;
#293 = PRODUCT_RELATED_PRODUCT_CATEGORY ( 'detail', '', ( #463 ) ) ;
#294 = EDGE_CURVE ( 'NONE', #1154, #1112, #616, .T. ) ;
#295 = AXIS2_PLACEMENT_3D ( 'NONE', #243, #426, #696 ) ;
#296 = CARTESIAN_POINT ( 'NONE',  ( 4.090559449950999849, 6.264865784915000013, 8.095278486141999963 ) ) ;
#297 = VECTOR ( 'NONE', #1141, 1000.000000000000000 ) ;
#298 = FACE_OUTER_BOUND ( 'NONE', #816, .T. ) ;
#299 = PLANE ( 'NONE',  #895 ) ;
#300 = VERTEX_POINT ( 'NONE', #706 ) ;
#301 = CARTESIAN_POINT ( 'NONE',  ( 1.422794718101544564, 5.502861872484887229, 3.361945190042041176 ) ) ;
#302 = APPROVAL_DATE_TIME ( #674, #30 ) ;
#303 = CARTESIAN_POINT ( 'NONE',  ( 6.596053413224509221, 8.550865784914998713, 6.845278486142000851 ) ) ;
#304 = CARTESIAN_POINT ( 'NONE',  ( 0.1718295617905195583, 8.550865784914998713, 6.845278486142000851 ) ) ;
#305 = ORIENTED_EDGE ( 'NONE', *, *, #590, .F. ) ;
#306 = B_SPLINE_CURVE_WITH_KNOTS ( 'NONE', 3,
 ( #387, #1114, #301, #659 ),
 .UNSPECIFIED., .F., .F.,
 ( 4, 4 ),
 ( 0.0008926373332190470260, 0.003187973499179810096 ),
 .UNSPECIFIED. ) ;
#307 = LINE ( 'NONE', #10, #598 ) ;
#308 = EDGE_CURVE ( 'NONE', #1012, #1056, #896, .T. ) ;
#309 = DIRECTION ( 'NONE',  ( 0.000000000000000000, 0.000000000000000000, -1.000000000000000000 ) ) ;
#310 = ORIENTED_EDGE ( 'NONE', *, *, #473, .F. ) ;
#311 = DIRECTION ( 'NONE',  ( 0.000000000000000000, 0.000000000000000000, 1.000000000000000000 ) ) ;
#312 = DIRECTION ( 'NONE',  ( 0.000000000000000000, 1.000000000000000000, 0.000000000000000000 ) ) ;
#313 = AXIS2_PLACEMENT_3D ( 'NONE', #1180, #98, #1020 ) ;
#314 = DIRECTION ( 'NONE',  ( 1.000000000000000000, 0.000000000000000000, 0.000000000000000000 ) ) ;
#315 = VERTEX_POINT ( 'NONE', #802 ) ;
#316 = EDGE_CURVE ( 'NONE', #16, #497, #729, .T. ) ;
#317 = CARTESIAN_POINT ( 'NONE',  ( 1.669600703123709673, 9.439865784914999836, 9.502033171991824290 ) ) ;
#318 = CARTESIAN_POINT ( 'NONE',  ( 4.090559449950999849, 9.439865784914999836, 8.095278486141999963 ) ) ;
#319 = CARTESIAN_POINT ( 'NONE',  ( 4.090559449950999849, 3.089865784915000191, 8.095278486141999963 ) ) ;
#320 = CARTESIAN_POINT ( 'NONE',  ( 1.405415133531484617, 6.264865784915000013, 12.89527848614200067 ) ) ;
#321 = ORIENTED_EDGE ( 'NONE', *, *, #712, .T. ) ;
#322 = CARTESIAN_POINT ( 'NONE',  ( -1.409440550048999929, 9.439865784914999836, 6.688523800292180965 ) ) ;
#323 = CARTESIAN_POINT ( 'NONE',  ( 4.090559449950999849, 3.978865784914999981, 8.095278486141999963 ) ) ;
#324 = PLANE ( 'NONE',  #577 ) ;
#325 = CARTESIAN_POINT ( 'NONE',  ( 1.639764739672875615, 3.381065076490746613, 9.450686880123827294 ) ) ;
#326 = VERTEX_POINT ( 'NONE', #518 ) ;
#327 = LINE ( 'NONE', #493, #427 ) ;
#328 = CARTESIAN_POINT ( 'NONE',  ( -1.409440550048999929, 3.978865784914999981, 9.345278486141999963 ) ) ;
#329 = EDGE_CURVE ( 'NONE', #74, #846, #524, .T. ) ;
#330 = AXIS2_PLACEMENT_3D ( 'NONE', #967, #1125, #134 ) ;
#331 = VECTOR ( 'NONE', #337, 1000.000000000000000 ) ;
#332 = CARTESIAN_POINT ( 'NONE',  ( 1.458069890379749767, 8.550865784914998713, 3.495277570962260771 ) ) ;
#333 = AXIS2_PLACEMENT_3D ( 'NONE', #401, #686, #764 ) ;
#334 = ORIENTED_EDGE ( 'NONE', *, *, #2, .F. ) ;
#335 = CARTESIAN_POINT ( 'NONE',  ( 1.669600703123709673, 3.089865784915000191, 6.688523800292180965 ) ) ;
#336 = DIRECTION ( 'NONE',  ( 0.000000000000000000, 0.000000000000000000, 1.000000000000000000 ) ) ;
#337 = DIRECTION ( 'NONE',  ( 0.000000000000000000, 1.000000000000000000, 0.000000000000000000 ) ) ;
#338 = EDGE_LOOP ( 'NONE', ( #566, #354, #343, #244 ) ) ;
#339 = ORIENTED_EDGE ( 'NONE', *, *, #237, .F. ) ;
#340 = FACE_OUTER_BOUND ( 'NONE', #428, .T. ) ;
#341 = EDGE_CURVE ( 'NONE', #1133, #991, #828, .T. ) ;
#342 = FACE_OUTER_BOUND ( 'NONE', #959, .T. ) ;
#343 = ORIENTED_EDGE ( 'NONE', *, *, #943, .F. ) ;
#344 = EDGE_LOOP ( 'NONE', ( #594, #334, #451, #827 ) ) ;
#345 = CARTESIAN_POINT ( 'NONE',  ( 1.405415133531484617, 6.264865784915000013, 12.89527848614200067 ) ) ;
#346 = DESIGN_CONTEXT ( 'detailed design', #1170, 'design' ) ;
#347 = CARTESIAN_POINT ( 'NONE',  ( 6.596053413224509221, 8.550865784914998713, 9.345278486141999963 ) ) ;
#348 = ORIENTED_EDGE ( 'NONE', *, *, #1128, .F. ) ;
#349 = CIRCLE ( 'NONE', #11, 5.300000915179739813 ) ;
#350 = DIRECTION ( 'NONE',  ( 0.000000000000000000, 0.000000000000000000, 1.000000000000000000 ) ) ;
#351 = EDGE_CURVE ( 'NONE', #222, #300, #368, .T. ) ;
#352 = CIRCLE ( 'NONE', #70, 5.500000000000000000 ) ;
#353 = CARTESIAN_POINT ( 'NONE',  ( 6.541354160229124304, 9.148666493339257855, 9.450686880123829070 ) ) ;
#354 = ORIENTED_EDGE ( 'NONE', *, *, #522, .T. ) ;
#355 = ORIENTED_EDGE ( 'NONE', *, *, #915, .F. ) ;
#356 = DIRECTION ( 'NONE',  ( 0.000000000000000000, 0.000000000000000000, 1.000000000000000000 ) ) ;
#357 = CARTESIAN_POINT ( 'NONE',  ( 6.758324181800454689, 5.502861872484887229, 12.82861178224196053 ) ) ;
#358 = ORIENTED_EDGE ( 'NONE', *, *, #663, .T. ) ;
#359 = ORIENTED_EDGE ( 'NONE', *, *, #265, .F. ) ;
#360 = CARTESIAN_POINT ( 'NONE',  ( 6.740776033786755050, 7.788869815252080109, 12.76194541031969187 ) ) ;
#361 = ORIENTED_EDGE ( 'NONE', *, *, #1024, .F. ) ;
#362 = EDGE_CURVE ( 'NONE', #893, #929, #796, .T. ) ;
#363 = CARTESIAN_POINT ( 'NONE',  ( 0.1718295617905143680, 3.978865784914999981, 9.345278486141999963 ) ) ;
#364 = ORIENTED_EDGE ( 'NONE', *, *, #395, .F. ) ;
#365 = FACE_OUTER_BOUND ( 'NONE', #256, .T. ) ;
#366 = CARTESIAN_POINT ( 'NONE',  ( 6.723049009522249264, 8.550865784914998713, 12.69527940132173960 ) ) ;
#367 = CONICAL_SURFACE ( 'NONE', #1029, 3.600000000000000977, 0.5235987755982987046 ) ;
#368 = CIRCLE ( 'NONE', #728, 1.574999999999999956 ) ;
#369 = CIRCLE ( 'NONE', #561, 2.800000000000000266 ) ;
#370 = CC_DESIGN_SECURITY_CLASSIFICATION ( #602, ( #14 ) ) ;
#371 = LINE ( 'NONE', #735, #468 ) ;
#372 = VERTEX_POINT ( 'NONE', #609 ) ;
#373 = CARTESIAN_POINT ( 'NONE',  ( 4.090559449950999849, 8.550865784914998713, 3.982014096832425576 ) ) ;
#374 = DIRECTION ( 'NONE',  ( 0.000000000000000000, 0.000000000000000000, 1.000000000000000000 ) ) ;
#375 = EDGE_LOOP ( 'NONE', ( #810, #1044, #716, #438 ) ) ;
#376 =( NAMED_UNIT ( * ) SI_UNIT ( $, .STERADIAN. ) SOLID_ANGLE_UNIT ( ) );
#377 = DIRECTION ( 'NONE',  ( 0.000000000000000000, 1.000000000000000000, 0.000000000000000000 ) ) ;
#378 = ORIENTED_EDGE ( 'NONE', *, *, #23, .F. ) ;
#379 = CYLINDRICAL_SURFACE ( 'NONE', #65, 2.800000000000000266 ) ;
#380 = CARTESIAN_POINT ( 'NONE',  ( 4.090559449950999849, 9.439865784914999836, 8.095278486141999963 ) ) ;
#381 = CC_DESIGN_DATE_AND_TIME_ASSIGNMENT ( #719, #568, ( #1098 ) ) ;
#382 = EDGE_CURVE ( 'NONE', #1012, #143, #215, .T. ) ;
#383 = COORDINATED_UNIVERSAL_TIME_OFFSET ( 6, 0, .BEHIND. ) ;
#384 = LINE ( 'NONE', #82, #506 ) ;
#385 = CARTESIAN_POINT ( 'NONE',  ( 4.090559449950999849, 6.264865784915000013, 8.095278486141999963 ) ) ;
#386 = ORIENTED_EDGE ( 'NONE', *, *, #791, .T. ) ;
#387 = CARTESIAN_POINT ( 'NONE',  ( 1.458069890379749767, 3.978865784914999981, 3.495277570962260771 ) ) ;
#388 = AXIS2_PLACEMENT_3D ( 'NONE', #675, #220, #754 ) ;
#389 = VECTOR ( 'NONE', #1057, 1000.000000000000000 ) ;
#390 = DIRECTION ( 'NONE',  ( 0.000000000000000000, 1.000000000000000000, 0.000000000000000000 ) ) ;
#391 = CARTESIAN_POINT ( 'NONE',  ( 7.594970660866619205, 3.361412218292054721, 6.736404763011709207 ) ) ;
#392 = ORIENTED_EDGE ( 'NONE', *, *, #437, .T. ) ;
#393 = CARTESIAN_POINT ( 'NONE',  ( 4.090559449950999849, 6.264865784915000013, 8.095278486141999963 ) ) ;
#394 = EDGE_CURVE ( 'NONE', #83, #632, #1031, .T. ) ;
#395 = EDGE_CURVE ( 'NONE', #283, #901, #349, .T. ) ;
#396 = LINE ( 'NONE', #856, #1130 ) ;
#397 = DIRECTION ( 'NONE',  ( 1.000000000000000000, 0.000000000000000000, 0.000000000000000000 ) ) ;
#398 = VERTEX_POINT ( 'NONE', #898 ) ;
#399 = DIRECTION ( 'NONE',  ( 1.000000000000000000, 0.000000000000000000, 0.000000000000000000 ) ) ;
#400 = DIRECTION ( 'NONE',  ( -1.000000000000000000, 0.000000000000000000, 0.000000000000000000 ) ) ;
#401 = CARTESIAN_POINT ( 'NONE',  ( 4.090559449950999849, 8.550865784914998713, 8.095278486141999963 ) ) ;
#402 = EDGE_CURVE ( 'NONE', #404, #326, #887, .T. ) ;
#403 = CARTESIAN_POINT ( 'NONE',  ( -1.409440550048999929, 9.439865784914999836, 9.502033171991824290 ) ) ;
#404 = VERTEX_POINT ( 'NONE', #60 ) ;
#405 = DIRECTION ( 'NONE',  ( 0.000000000000000000, -0.9848077530122091305, 0.1736481776669245303 ) ) ;
#406 = DIRECTION ( 'NONE',  ( 0.000000000000000000, 0.000000000000000000, -1.000000000000000000 ) ) ;
#407 = CARTESIAN_POINT ( 'NONE',  ( 4.090559449950999849, 9.439865784914999836, 8.095278486141999963 ) ) ;
#408 = AXIS2_PLACEMENT_3D ( 'NONE', #1115, #490, #951 ) ;
#409 = CIRCLE ( 'NONE', #751, 2.800000000000000266 ) ;
#410 = DIRECTION ( 'NONE',  ( 0.000000000000000000, 1.000000000000000000, 0.000000000000000000 ) ) ;
#411 = EDGE_LOOP ( 'NONE', ( #386, #203, #26, #803 ) ) ;
#412 = DIRECTION ( 'NONE',  ( 0.000000000000000000, -0.1736481776669245303, -0.9848077530122091305 ) ) ;
#413 = DIRECTION ( 'NONE',  ( -0.000000000000000000, 0.08715574274765824914, 0.9961946980917455452 ) ) ;
#414 = CARTESIAN_POINT ( 'NONE',  ( 0.1718295617905195583, 3.978865784914999981, 6.845278486142000851 ) ) ;
#415 = DIRECTION ( 'NONE',  ( 0.000000000000000000, -0.1736481776669274169, 0.9848077530122085754 ) ) ;
#416 = CC_DESIGN_PERSON_AND_ORGANIZATION_ASSIGNMENT ( #187, #1187, ( #463 ) ) ;
#417 = ORIENTED_EDGE ( 'NONE', *, *, #725, .T. ) ;
#418 = CARTESIAN_POINT ( 'NONE',  ( 6.723049009522254593, 3.978865784914999981, 12.69527940132173960 ) ) ;
#419 = EDGE_CURVE ( 'NONE', #16, #929, #1016, .T. ) ;
#420 = DIRECTION ( 'NONE',  ( 0.000000000000000000, 1.000000000000000000, 0.000000000000000000 ) ) ;
#421 = ORIENTED_EDGE ( 'NONE', *, *, #1074, .T. ) ;
#422 = CARTESIAN_POINT ( 'NONE',  ( 1.611576828483333390, 3.677498374954504268, 6.792139280659736045 ) ) ;
#423 = DIRECTION ( 'NONE',  ( 0.000000000000000000, 1.000000000000000000, 0.000000000000000000 ) ) ;
#424 = EDGE_CURVE ( 'NONE', #398, #922, #15, .T. ) ;
#425 = AXIS2_PLACEMENT_3D ( 'NONE', #1120, #496, #309 ) ;
#426 = DIRECTION ( 'NONE',  ( 0.000000000000000000, 1.000000000000000000, 0.000000000000000000 ) ) ;
#427 = VECTOR ( 'NONE', #211, 1000.000000000000000 ) ;
#428 = EDGE_LOOP ( 'NONE', ( #181, #1178, #899, #1061, #516 ) ) ;
#429 = ORIENTED_EDGE ( 'NONE', *, *, #1124, .F. ) ;
#430 = DIRECTION ( 'NONE',  ( 0.000000000000000000, 1.000000000000000000, 0.000000000000000000 ) ) ;
#431 = ADVANCED_FACE ( 'NONE', ( #342 ), #1068, .T. ) ;
#432 = CARTESIAN_POINT ( 'NONE',  ( 1.422794718101544564, 7.026869697345111021, 3.361945190042030518 ) ) ;
#433 = ORIENTED_EDGE ( 'NONE', *, *, #237, .T. ) ;
#434 = ORIENTED_EDGE ( 'NONE', *, *, #758, .T. ) ;
#435 = DIRECTION ( 'NONE',  ( 0.000000000000000000, -1.000000000000000000, 0.000000000000000000 ) ) ;
#436 = CARTESIAN_POINT ( 'NONE',  ( 4.090559449950999849, 8.550865784914998713, 8.095278486141999963 ) ) ;
#437 = EDGE_CURVE ( 'NONE', #21, #83, #260, .T. ) ;
#438 = ORIENTED_EDGE ( 'NONE', *, *, #1128, .T. ) ;
#439 = EDGE_LOOP ( 'NONE', ( #1117, #618, #519, #358 ) ) ;
#440 = CARTESIAN_POINT ( 'NONE',  ( 6.723049009522249264, 8.550865784914998713, 12.69527940132173960 ) ) ;
#441 = CARTESIAN_POINT ( 'NONE',  ( 4.090559449950999849, 3.978865784914999981, 8.095278486141999963 ) ) ;
#442 = VERTEX_POINT ( 'NONE', #625 ) ;
#443 = AXIS2_PLACEMENT_3D ( 'NONE', #601, #510, #676 ) ;
#444 = ADVANCED_FACE ( 'NONE', ( #158 ), #615, .T. ) ;
#445 = ORIENTED_EDGE ( 'NONE', *, *, #507, .T. ) ;
#446 = VECTOR ( 'NONE', #1161, 1000.000000000000000 ) ;
#447 = CARTESIAN_POINT ( 'NONE',  ( 4.090559449950999849, 3.089865784915000191, 8.095278486141999963 ) ) ;
#448 = AXIS2_PLACEMENT_3D ( 'NONE', #1046, #1067, #529 ) ;
#449 = CONICAL_SURFACE ( 'NONE', #1070, 3.600000000000000977, 0.5235987755982987046 ) ;
#450 = CARTESIAN_POINT ( 'NONE',  ( -1.209441465228740409, 8.550865784914998713, 8.095278486141999963 ) ) ;
#451 = ORIENTED_EDGE ( 'NONE', *, *, #718, .T. ) ;
#452 = EDGE_LOOP ( 'NONE', ( #58, #512, #97, #1076 ) ) ;
#453 = EDGE_CURVE ( 'NONE', #527, #1145, #993, .T. ) ;
#454 = DIRECTION ( 'NONE',  ( 0.000000000000000000, 0.000000000000000000, 1.000000000000000000 ) ) ;
#455 = ORIENTED_EDGE ( 'NONE', *, *, #998, .F. ) ;
#456 = B_SPLINE_CURVE_WITH_KNOTS ( 'NONE', 3,
 ( #569, #76, #287, #644 ),
 .UNSPECIFIED., .F., .F.,
 ( 4, 4 ),
 ( 0.000000000000000000, 1.000000000000000000 ),
 .UNSPECIFIED. ) ;
#457 = DIRECTION ( 'NONE',  ( 0.000000000000000000, 0.000000000000000000, 1.000000000000000000 ) ) ;
#458 = ORIENTED_EDGE ( 'NONE', *, *, #362, .F. ) ;
#459 = CARTESIAN_POINT ( 'NONE',  ( 6.596053413224509221, 8.550865784914998713, 6.845278486142000851 ) ) ;
#460 = ORIENTED_EDGE ( 'NONE', *, *, #294, .F. ) ;
#462 = EDGE_CURVE ( 'NONE', #931, #534, #903, .T. ) ;
#461 = B_SPLINE_CURVE_WITH_KNOTS ( 'NONE', 3,
 ( #484, #391, #198, #755 ),
 .UNSPECIFIED., .F., .F.,
 ( 4, 4 ),
 ( 0.000000000000000000, 1.000000000000000000 ),
 .UNSPECIFIED. ) ;
#463 = PRODUCT ( '228-2500-143', '228-2500-143', '', ( #1013 ) ) ;
#464 = DIRECTION ( 'NONE',  ( 0.000000000000000000, -1.000000000000000000, 0.000000000000000000 ) ) ;
#465 = VERTEX_POINT ( 'NONE', #543 ) ;
#466 = CARTESIAN_POINT ( 'NONE',  ( -1.409440550048999929, 3.089865784915000191, 6.688523800292180965 ) ) ;
#467 = CARTESIAN_POINT ( 'NONE',  ( 6.775703766370509307, 6.264865784915000013, 12.89527848614200067 ) ) ;
#468 = VECTOR ( 'NONE', #7, 1000.000000000000000 ) ;
#469 = AXIS2_PLACEMENT_3D ( 'NONE', #965, #133, #1142 ) ;
#470 = SECURITY_CLASSIFICATION_LEVEL ( 'unclassified' ) ;
#471 = PLANE ( 'NONE',  #770 ) ;
#472 =( BOUNDED_CURVE ( )  B_SPLINE_CURVE ( 3, ( #190, #747, #825, #167 ),
 .UNSPECIFIED., .F., .T. ) 
 B_SPLINE_CURVE_WITH_KNOTS ( ( 4, 4 ),
 ( 1.044409718505030060, 1.108026209002803908 ),
 .UNSPECIFIED. ) 
 CURVE ( )  GEOMETRIC_REPRESENTATION_ITEM ( )  RATIONAL_B_SPLINE_CURVE ( ( 1.000000000000000000, 0.9996627736123069319, 0.9996627736123069319, 1.000000000000000000 ) ) 
 REPRESENTATION_ITEM ( '' )  );
#473 = EDGE_CURVE ( 'NONE', #743, #8, #131, .T. ) ;
#474 = EDGE_LOOP ( 'NONE', ( #361, #586 ) ) ;
#475 = DIRECTION ( 'NONE',  ( 0.000000000000000000, 0.000000000000000000, 1.000000000000000000 ) ) ;
#476 = DIRECTION ( 'NONE',  ( 0.000000000000000000, 1.000000000000000000, 0.000000000000000000 ) ) ;
#477 = ORIENTED_EDGE ( 'NONE', *, *, #1151, .T. ) ;
#478 = DIRECTION ( 'NONE',  ( 0.000000000000000000, 0.000000000000000000, 1.000000000000000000 ) ) ;
#479 = ORIENTED_EDGE ( 'NONE', *, *, #351, .F. ) ;
#480 = EDGE_CURVE ( 'NONE', #80, #398, #917, .T. ) ;
#481 = CARTESIAN_POINT ( 'NONE',  ( 8.009289338111486245, 3.978865784914999981, 9.345278486141999963 ) ) ;
#482 = EDGE_LOOP ( 'NONE', ( #972, #51, #261, #570 ) ) ;
#483 = CARTESIAN_POINT ( 'NONE',  ( 8.203823839260575568, 8.550865784914998713, 8.095278486141999963 ) ) ;
#484 = CARTESIAN_POINT ( 'NONE',  ( 7.404324869204383930, 3.089865784915000191, 6.688523800292180965 ) ) ;
#485 = ORIENTED_EDGE ( 'NONE', *, *, #563, .T. ) ;
#486 = CIRCLE ( 'NONE', #938, 4.113264389309573943 ) ;
#487 = EDGE_CURVE ( 'NONE', #1154, #571, #456, .T. ) ;
#488 = VECTOR ( 'NONE', #1060, 1000.000000000000000 ) ;
#489 = VECTOR ( 'NONE', #41, 1000.000000000000000 ) ;
#490 = DIRECTION ( 'NONE',  ( 0.000000000000000000, 1.000000000000000000, 0.000000000000000000 ) ) ;
#491 = CARTESIAN_POINT ( 'NONE',  ( -1.409440550048999929, 3.978865784914999981, 6.845278486142000851 ) ) ;
#492 = VERTEX_POINT ( 'NONE', #840 ) ;
#493 = CARTESIAN_POINT ( 'NONE',  ( 9.590559449950998072, 3.978865784914999981, 12.69527940132173960 ) ) ;
#494 = FACE_OUTER_BOUND ( 'NONE', #756, .T. ) ;
#495 = CYLINDRICAL_SURFACE ( 'NONE', #68, 1.574999999999999956 ) ;
#496 = DIRECTION ( 'NONE',  ( 0.000000000000000000, -1.000000000000000000, 0.000000000000000000 ) ) ;
#497 = VERTEX_POINT ( 'NONE', #726 ) ;
#498 = LINE ( 'NONE', #1146, #808 ) ;
#499 = CARTESIAN_POINT ( 'NONE',  ( 6.758324181800454689, 7.026869697345111021, 3.361945190042030518 ) ) ;
#500 = ADVANCED_FACE ( 'NONE', ( #651, #1008, #282, #104 ), #471, .F. ) ;
#501 = DIRECTION ( 'NONE',  ( 1.000000000000000000, 0.000000000000000000, 0.000000000000000000 ) ) ;
#502 = CARTESIAN_POINT ( 'NONE',  ( 2.515559449950999671, 3.978865784914999981, 8.095278486141999963 ) ) ;
#503 = VERTEX_POINT ( 'NONE', #276 ) ;
#504 = CARTESIAN_POINT ( 'NONE',  ( 6.740776033786749721, 7.788869815252080109, 3.428611561964310717 ) ) ;
#505 = DIRECTION ( 'NONE',  ( 0.000000000000000000, 0.000000000000000000, 1.000000000000000000 ) ) ;
#506 = VECTOR ( 'NONE', #820, 1000.000000000000000 ) ;
#507 = EDGE_CURVE ( 'NONE', #721, #534, #1091, .T. ) ;
#508 = ADVANCED_BREP_SHAPE_REPRESENTATION ( '228-2500-143', ( #1185, #148 ), #1150 ) ;
#509 = CIRCLE ( 'NONE', #995, 3.600000000000000977 ) ;
#510 = DIRECTION ( 'NONE',  ( 0.000000000000000000, -0.1736481776669274169, -0.9848077530122085754 ) ) ;
#511 = EDGE_CURVE ( 'NONE', #982, #941, #1147, .T. ) ;
#512 = ORIENTED_EDGE ( 'NONE', *, *, #462, .T. ) ;
#513 = CARTESIAN_POINT ( 'NONE',  ( 0.3839385666778798445, 8.871148201333134864, 9.401752917603023008 ) ) ;
#514 = DIRECTION ( 'NONE',  ( 0.000000000000000000, 0.000000000000000000, 1.000000000000000000 ) ) ;
#515 = DIRECTION ( 'NONE',  ( 0.000000000000000000, 0.000000000000000000, 1.000000000000000000 ) ) ;
#516 = ORIENTED_EDGE ( 'NONE', *, *, #553, .T. ) ;
#517 = DIRECTION ( 'NONE',  ( 0.000000000000000000, -0.08715574274765824914, 0.9961946980917455452 ) ) ;
#518 = CARTESIAN_POINT ( 'NONE',  ( 1.669600703123709673, 3.089865784915000191, 6.688523800292180965 ) ) ;
#519 = ORIENTED_EDGE ( 'NONE', *, *, #99, .F. ) ;
#520 = ORIENTED_EDGE ( 'NONE', *, *, #649, .F. ) ;
#521 = ADVANCED_FACE ( 'NONE', ( #638 ), #109, .T. ) ;
#522 = EDGE_CURVE ( 'NONE', #846, #503, #472, .T. ) ;
#523 = AXIS2_PLACEMENT_3D ( 'NONE', #930, #95, #170 ) ;
#524 = CIRCLE ( 'NONE', #295, 2.800000000000000266 ) ;
#525 = DIRECTION ( 'NONE',  ( 0.000000000000000000, 1.000000000000000000, 0.000000000000000000 ) ) ;
#526 = AXIS2_PLACEMENT_3D ( 'NONE', #393, #22, #311 ) ;
#527 = VERTEX_POINT ( 'NONE', #1081 ) ;
#528 = ORIENTED_EDGE ( 'NONE', *, *, #219, .F. ) ;
#529 = DIRECTION ( 'NONE',  ( -1.000000000000000000, 0.000000000000000000, 0.000000000000000000 ) ) ;
#530 = DIRECTION ( 'NONE',  ( 0.000000000000000000, 1.000000000000000000, 0.000000000000000000 ) ) ;
#531 = ORIENTED_EDGE ( 'NONE', *, *, #697, .F. ) ;
#532 = CARTESIAN_POINT ( 'NONE',  ( 0.1718295617905195583, 8.550865784914998713, 6.845278486142000851 ) ) ;
#533 = DIRECTION ( 'NONE',  ( 0.000000000000000000, -1.000000000000000000, 0.000000000000000000 ) ) ;
#534 = VERTEX_POINT ( 'NONE', #93 ) ;
#535 = FACE_OUTER_BOUND ( 'NONE', #1006, .T. ) ;
#536 = CARTESIAN_POINT ( 'NONE',  ( 4.090559449950999849, 6.264865784915000013, 8.095278486141999963 ) ) ;
#537 = ORIENTED_EDGE ( 'NONE', *, *, #591, .T. ) ;
#538 = AXIS2_PLACEMENT_3D ( 'NONE', #85, #647, #350 ) ;
#539 = FACE_OUTER_BOUND ( 'NONE', #708, .T. ) ;
#540 = EDGE_LOOP ( 'NONE', ( #1127, #445, #280, #698 ) ) ;
#541 = CIRCLE ( 'NONE', #132, 3.600000000000000977 ) ;
#542 = PERSON_AND_ORGANIZATION_ROLE ( 'creator' ) ;
#543 = CARTESIAN_POINT ( 'NONE',  ( 5.665559449951000026, 8.550865784914998713, 8.095278486141999963 ) ) ;
#544 = ORIENTED_EDGE ( 'NONE', *, *, #152, .T. ) ;
#545 = CARTESIAN_POINT ( 'NONE',  ( 4.090559449950999849, 8.550865784914998713, 10.89527848614200067 ) ) ;
#546 = CARTESIAN_POINT ( 'NONE',  ( 1.669600703123709673, 3.089865784915000191, 9.502033171991824290 ) ) ;
#547 = EDGE_CURVE ( 'NONE', #922, #835, #979, .T. ) ;
#548 = EDGE_LOOP ( 'NONE', ( #658, #863, #552, #891, #355 ) ) ;
#549 = DIRECTION ( 'NONE',  ( 0.000000000000000000, -1.000000000000000000, 0.000000000000000000 ) ) ;
#550 = VERTEX_POINT ( 'NONE', #1108 ) ;
#551 = DIRECTION ( 'NONE',  ( 1.000000000000000000, 0.000000000000000000, 0.000000000000000000 ) ) ;
#552 = ORIENTED_EDGE ( 'NONE', *, *, #1074, .F. ) ;
#553 = EDGE_CURVE ( 'NONE', #74, #527, #371, .T. ) ;
#554 = DATE_AND_TIME ( #1080, #733 ) ;
#555 = CARTESIAN_POINT ( 'NONE',  ( 1.405415133531484617, 6.264865784915000013, 12.89527848614200067 ) ) ;
#556 = CARTESIAN_POINT ( 'NONE',  ( 4.090559449950999849, 8.550865784914998713, 8.095278486141999963 ) ) ;
#557 = DIRECTION ( 'NONE',  ( 0.000000000000000000, -1.000000000000000000, 0.000000000000000000 ) ) ;
#558 = CONICAL_SURFACE ( 'NONE', #67, 4.113264389309574831, 0.5235987755982982605 ) ;
#559 = ORIENTED_EDGE ( 'NONE', *, *, #188, .T. ) ;
#560 = CIRCLE ( 'NONE', #12, 2.800000000000000266 ) ;
#561 = AXIS2_PLACEMENT_3D ( 'NONE', #323, #430, #336 ) ;
#562 = DIRECTION ( 'NONE',  ( 0.000000000000000000, 0.000000000000000000, 1.000000000000000000 ) ) ;
#563 = EDGE_CURVE ( 'NONE', #743, #372, #384, .T. ) ;
#564 = CARTESIAN_POINT ( 'NONE',  ( 4.090559449950999849, 8.550865784914998713, 8.095278486141999963 ) ) ;
#565 = DIRECTION ( 'NONE',  ( 0.000000000000000000, 1.000000000000000000, 0.000000000000000000 ) ) ;
#566 = ORIENTED_EDGE ( 'NONE', *, *, #329, .T. ) ;
#567 = DIRECTION ( 'NONE',  ( 1.000000000000000000, 0.000000000000000000, 0.000000000000000000 ) ) ;
#568 = DATE_TIME_ROLE ( 'creation_date' ) ;
#569 = CARTESIAN_POINT ( 'NONE',  ( 0.7767940306976197640, 3.089865784915000191, 9.502033171991824290 ) ) ;
#570 = ORIENTED_EDGE ( 'NONE', *, *, #752, .F. ) ;
#571 = VERTEX_POINT ( 'NONE', #363 ) ;
#572 = DIRECTION ( 'NONE',  ( 0.000000000000000000, 0.000000000000000000, -1.000000000000000000 ) ) ;
#573 = LINE ( 'NONE', #1048, #1184 ) ;
#574 = ORIENTED_EDGE ( 'NONE', *, *, #395, .T. ) ;
#575 = CARTESIAN_POINT ( 'NONE',  ( 1.458069890379749767, 8.550865784914998713, 12.69527940132173960 ) ) ;
#576 = AXIS2_PLACEMENT_3D ( 'NONE', #564, #926, #628 ) ;
#577 = AXIS2_PLACEMENT_3D ( 'NONE', #108, #19, #844 ) ;
#578 = DIRECTION ( 'NONE',  ( 0.000000000000000000, 0.000000000000000000, 1.000000000000000000 ) ) ;
#579 = PLANE ( 'NONE',  #1167 ) ;
#580 = EDGE_LOOP ( 'NONE', ( #642, #1022, #1001, #981 ) ) ;
#581 = CARTESIAN_POINT ( 'NONE',  ( 4.090559449950999849, 3.089865784915000191, 8.095278486141999963 ) ) ;
#582 = LINE ( 'NONE', #949, #617 ) ;
#583 = APPROVAL_ROLE ( '' ) ;
#584 = CARTESIAN_POINT ( 'NONE',  ( 4.090559449950999849, 6.264865784915000013, 8.095278486141999963 ) ) ;
#585 = CARTESIAN_POINT ( 'NONE',  ( 8.009289338111479140, 8.550865784914998713, 6.845278486142000851 ) ) ;
#586 = ORIENTED_EDGE ( 'NONE', *, *, #1059, .F. ) ;
#587 = CARTESIAN_POINT ( 'NONE',  ( 7.404324869204383930, 3.089865784915000191, 6.688523800292180965 ) ) ;
#588 =( BOUNDED_CURVE ( )  B_SPLINE_CURVE ( 3, ( #303, #662, #1118, #861 ),
 .UNSPECIFIED., .F., .T. ) 
 B_SPLINE_CURVE_WITH_KNOTS ( ( 4, 4 ),
 ( 5.175159098176780326, 5.238775588674560169 ),
 .UNSPECIFIED. ) 
 CURVE ( )  GEOMETRIC_REPRESENTATION_ITEM ( )  RATIONAL_B_SPLINE_CURVE ( ( 1.000000000000000000, 0.9996627736123069319, 0.9996627736123069319, 1.000000000000000000 ) ) 
 REPRESENTATION_ITEM ( '' )  );
#589 = ADVANCED_FACE ( 'NONE', ( #298 ), #1097, .F. ) ;
#590 = EDGE_CURVE ( 'NONE', #929, #941, #307, .T. ) ;
#591 = EDGE_CURVE ( 'NONE', #1112, #1133, #144, .T. ) ;
#592 = CYLINDRICAL_SURFACE ( 'NONE', #672, 2.800000000000000266 ) ;
#593 = DIRECTION ( 'NONE',  ( 1.000000000000000000, 0.000000000000000000, 0.000000000000000000 ) ) ;
#594 = ORIENTED_EDGE ( 'NONE', *, *, #737, .F. ) ;
#595 = CARTESIAN_POINT ( 'NONE',  ( 1.585065486677489588, 8.550865784914998713, 9.345278486141999963 ) ) ;
#596 = DIRECTION ( 'NONE',  ( -0.08715574274765836016, -0.9961946980917455452, 0.000000000000000000 ) ) ;
#597 = PLANE ( 'NONE',  #469 ) ;
#598 = VECTOR ( 'NONE', #121, 1000.000000000000000 ) ;
#599 = EDGE_CURVE ( 'NONE', #1082, #931, #955, .T. ) ;
#600 = CIRCLE ( 'NONE', #673, 2.800000000000000266 ) ;
#601 = CARTESIAN_POINT ( 'NONE',  ( -1.409440550048999929, 3.978865784914999981, 9.345278486141999963 ) ) ;
#602 = SECURITY_CLASSIFICATION ( '', '', #470 ) ;
#603 = ORIENTED_EDGE ( 'NONE', *, *, #294, .T. ) ;
#604 = CARTESIAN_POINT ( 'NONE',  ( 0.7767940306976149900, 9.439865784914999836, 9.502033171991824290 ) ) ;
#605 = EDGE_LOOP ( 'NONE', ( #678, #648, #889, #603, #537, #231 ) ) ;
#606 = EDGE_CURVE ( 'NONE', #534, #8, #940, .T. ) ;
#607 = PLANE ( 'NONE',  #253 ) ;
#608 = LINE ( 'NONE', #1052, #771 ) ;
#609 = CARTESIAN_POINT ( 'NONE',  ( 1.458069890379749767, 3.978865784914999981, 3.495277570962260771 ) ) ;
#610 = ORIENTED_EDGE ( 'NONE', *, *, #882, .T. ) ;
#611 = ORIENTED_EDGE ( 'NONE', *, *, #606, .T. ) ;
#612 = PLANE ( 'NONE',  #1111 ) ;
#613 = ADVANCED_FACE ( 'NONE', ( #850 ), #592, .F. ) ;
#614 = CIRCLE ( 'NONE', #523, 3.600000000000000977 ) ;
#615 = CONICAL_SURFACE ( 'NONE', #186, 5.500000000000000000, 0.08726646259971625186 ) ;
#616 = LINE ( 'NONE', #255, #488 ) ;
#617 = VECTOR ( 'NONE', #119, 1000.000000000000000 ) ;
#618 = ORIENTED_EDGE ( 'NONE', *, *, #47, .F. ) ;
#619 = CARTESIAN_POINT ( 'NONE',  ( -1.409440550048999929, 3.978865784914999981, 6.845278486142000851 ) ) ;
#620 = ORIENTED_EDGE ( 'NONE', *, *, #998, .T. ) ;
#621 = ORIENTED_EDGE ( 'NONE', *, *, #437, .F. ) ;
#622 = DIRECTION ( 'NONE',  ( 0.000000000000000000, -0.1736481776669274169, -0.9848077530122085754 ) ) ;
#623 =( BOUNDED_CURVE ( )  B_SPLINE_CURVE ( 3, ( #689, #1134, #974, #1050 ),
 .UNSPECIFIED., .F., .T. ) 
 B_SPLINE_CURVE_WITH_KNOTS ( ( 4, 4 ),
 ( 4.186002372094820068, 4.249618862592594581 ),
 .UNSPECIFIED. ) 
 CURVE ( )  GEOMETRIC_REPRESENTATION_ITEM ( )  RATIONAL_B_SPLINE_CURVE ( ( 1.000000000000000000, 0.9996627736123069319, 0.9996627736123069319, 1.000000000000000000 ) ) 
 REPRESENTATION_ITEM ( '' )  );
#624 = EDGE_CURVE ( 'NONE', #947, #497, #89, .T. ) ;
#625 = CARTESIAN_POINT ( 'NONE',  ( 7.404324869204383930, 9.439865784914999836, 9.502033171991824290 ) ) ;
#626 = ORIENTED_EDGE ( 'NONE', *, *, #813, .F. ) ;
#627 = CARTESIAN_POINT ( 'NONE',  ( 0.1718295617905195583, 3.978865784914999981, 6.845278486142000851 ) ) ;
#628 = DIRECTION ( 'NONE',  ( 1.000000000000000000, 0.000000000000000000, 0.000000000000000000 ) ) ;
#629 = AXIS2_PLACEMENT_3D ( 'NONE', #385, #1099, #284 ) ;
#630 = ADVANCED_FACE ( 'NONE', ( #680 ), #495, .F. ) ;
#631 = EDGE_LOOP ( 'NONE', ( #1194, #1164, #248, #817 ) ) ;
#632 = VERTEX_POINT ( 'NONE', #38 ) ;
#633 = AXIS2_PLACEMENT_3D ( 'NONE', #945, #1131, #572 ) ;
#634 = PLANE ( 'NONE',  #274 ) ;
#635 = ORIENTED_EDGE ( 'NONE', *, *, #692, .T. ) ;
#636 = LOCAL_TIME ( 14, 24, 36.00000000000000000, #860 ) ;
#637 = CYLINDRICAL_SURFACE ( 'NONE', #254, 2.800000000000000266 ) ;
#638 = FACE_OUTER_BOUND ( 'NONE', #832, .T. ) ;
#639 = EDGE_CURVE ( 'NONE', #721, #743, #749, .T. ) ;
#640 = FACE_OUTER_BOUND ( 'NONE', #605, .T. ) ;
#641 = DIRECTION ( 'NONE',  ( 0.000000000000000000, 1.000000000000000000, 0.000000000000000000 ) ) ;
#642 = ORIENTED_EDGE ( 'NONE', *, *, #382, .F. ) ;
#643 = CARTESIAN_POINT ( 'NONE',  ( 7.595558870620454428, 9.167481534666466203, 9.454004479552965634 ) ) ;
#644 = CARTESIAN_POINT ( 'NONE',  ( 0.1718295617905143680, 3.978865784914999981, 9.345278486141999963 ) ) ;
#645 = ORIENTED_EDGE ( 'NONE', *, *, #1062, .T. ) ;
#646 = FACE_OUTER_BOUND ( 'NONE', #1015, .T. ) ;
#647 = DIRECTION ( 'NONE',  ( 0.000000000000000000, 1.000000000000000000, 0.000000000000000000 ) ) ;
#648 = ORIENTED_EDGE ( 'NONE', *, *, #712, .F. ) ;
#649 = EDGE_CURVE ( 'NONE', #799, #654, #1051, .T. ) ;
#650 = CARTESIAN_POINT ( 'NONE',  ( 7.404324869204383930, 9.439865784914999836, 9.502033171991824290 ) ) ;
#651 = FACE_OUTER_BOUND ( 'NONE', #1095, .T. ) ;
#652 = EDGE_LOOP ( 'NONE', ( #195, #1032, #123, #479 ) ) ;
#653 = CARTESIAN_POINT ( 'NONE',  ( 0.7767940306976097720, 9.439865784914999836, 6.688523800292180965 ) ) ;
#654 = VERTEX_POINT ( 'NONE', #414 ) ;
#655 = EDGE_CURVE ( 'NONE', #21, #74, #588, .T. ) ;
#656 = DIRECTION ( 'NONE',  ( 0.000000000000000000, 0.000000000000000000, 1.000000000000000000 ) ) ;
#657 = CARTESIAN_POINT ( 'NONE',  ( 4.090559449950999849, 8.550865784914998713, 8.095278486141999963 ) ) ;
#658 = ORIENTED_EDGE ( 'NONE', *, *, #765, .T. ) ;
#659 = CARTESIAN_POINT ( 'NONE',  ( 1.405415133531489724, 6.264865784915000013, 3.295278486142001029 ) ) ;
#660 = APPROVAL_STATUS ( 'not_yet_approved' ) ;
#661 = CC_DESIGN_PERSON_AND_ORGANIZATION_ASSIGNMENT ( #833, #75, ( #602 ) ) ;
#662 = CARTESIAN_POINT ( 'NONE',  ( 6.569542071418666751, 8.852233194875491762, 6.792139280659738709 ) ) ;
#663 = EDGE_CURVE ( 'NONE', #143, #326, #560, .T. ) ;
#664 = DIRECTION ( 'NONE',  ( 0.000000000000000000, 1.000000000000000000, 0.000000000000000000 ) ) ;
#665 = EDGE_LOOP ( 'NONE', ( #161, #321, #359, #64 ) ) ;
#666 = DATE_AND_TIME ( #763, #811 ) ;
#667 = DIRECTION ( 'NONE',  ( 0.000000000000000000, 1.000000000000000000, 0.000000000000000000 ) ) ;
#668 = ADVANCED_FACE ( 'NONE', ( #200 ), #772, .F. ) ;
#669 = CARTESIAN_POINT ( 'NONE',  ( 4.090559449950999849, 8.550865784914998713, 8.095278486141999963 ) ) ;
#670 = ORIENTED_EDGE ( 'NONE', *, *, #854, .F. ) ;
#671 =( BOUNDED_CURVE ( )  B_SPLINE_CURVE ( 3, ( #869, #214, #325, #122 ),
 .UNSPECIFIED., .F., .T. ) 
 B_SPLINE_CURVE_WITH_KNOTS ( ( 4, 4 ),
 ( 2.033566444586989874, 2.097182935084765276 ),
 .UNSPECIFIED. ) 
 CURVE ( )  GEOMETRIC_REPRESENTATION_ITEM ( )  RATIONAL_B_SPLINE_CURVE ( ( 1.000000000000000000, 0.9996627736123069319, 0.9996627736123069319, 1.000000000000000000 ) ) 
 REPRESENTATION_ITEM ( '' )  );
#672 = AXIS2_PLACEMENT_3D ( 'NONE', #584, #667, #505 ) ;
#673 = AXIS2_PLACEMENT_3D ( 'NONE', #1005, #1177, #66 ) ;
#674 = DATE_AND_TIME ( #685, #636 ) ;
#675 = CARTESIAN_POINT ( 'NONE',  ( 4.090559449950999849, 3.978865784914999981, 8.095278486141999963 ) ) ;
#676 = DIRECTION ( 'NONE',  ( 0.000000000000000000, -0.9848077530122085754, 0.1736481776669274169 ) ) ;
#677 = CC_DESIGN_PERSON_AND_ORGANIZATION_ASSIGNMENT ( #916, #542, ( #14 ) ) ;
#678 = ORIENTED_EDGE ( 'NONE', *, *, #813, .T. ) ;
#679 = DIRECTION ( 'NONE',  ( -1.000000000000000000, 0.000000000000000000, 0.000000000000000000 ) ) ;
#680 = FACE_OUTER_BOUND ( 'NONE', #652, .T. ) ;
#681 = DIRECTION ( 'NONE',  ( 0.000000000000000000, -0.08715574274765824914, -0.9961946980917455452 ) ) ;
#682 = VERTEX_POINT ( 'NONE', #1138 ) ;
#683 = CARTESIAN_POINT ( 'NONE',  ( 4.090559449950999849, 8.550865784914998713, 8.095278486141999963 ) ) ;
#684 = ADVANCED_FACE ( 'NONE', ( #937 ), #324, .T. ) ;
#685 = CALENDAR_DATE ( 2022, 7, 7 ) ;
#686 = DIRECTION ( 'NONE',  ( 0.000000000000000000, 1.000000000000000000, 0.000000000000000000 ) ) ;
#687 = PLANE ( 'NONE',  #273 ) ;
#688 = ORIENTED_EDGE ( 'NONE', *, *, #849, .F. ) ;
#689 = CARTESIAN_POINT ( 'NONE',  ( 6.511518196778290246, 3.089865784915000191, 9.502033171991824290 ) ) ;
#690 = VECTOR ( 'NONE', #892, 1000.000000000000000 ) ;
#691 = VECTOR ( 'NONE', #399, 1000.000000000000000 ) ;
#692 = EDGE_CURVE ( 'NONE', #982, #1191, #396, .T. ) ;
#693 = CARTESIAN_POINT ( 'NONE',  ( -1.409440550048999929, 3.089865784915000191, 6.688523800292180965 ) ) ;
#694 = VERTEX_POINT ( 'NONE', #24 ) ;
#695 = LINE ( 'NONE', #960, #389 ) ;
#696 = DIRECTION ( 'NONE',  ( 0.000000000000000000, 0.000000000000000000, 1.000000000000000000 ) ) ;
#697 = EDGE_CURVE ( 'NONE', #997, #80, #92, .T. ) ;
#698 = ORIENTED_EDGE ( 'NONE', *, *, #599, .F. ) ;
#699 = CARTESIAN_POINT ( 'NONE',  ( 4.090559449950999849, 6.264865784915000013, 8.095278486141999963 ) ) ;
#700 = ORIENTED_EDGE ( 'NONE', *, *, #419, .T. ) ;
#701 = ADVANCED_FACE ( 'NONE', ( #213 ), #597, .F. ) ;
#702 = DIRECTION ( 'NONE',  ( 0.000000000000000000, -0.1736481776669245303, 0.9848077530122091305 ) ) ;
#703 = EDGE_CURVE ( 'NONE', #571, #694, #707, .T. ) ;
#704 =( BOUNDED_CURVE ( )  B_SPLINE_CURVE ( 3, ( #595, #871, #954, #317 ),
 .UNSPECIFIED., .F., .T. ) 
 B_SPLINE_CURVE_WITH_KNOTS ( ( 4, 4 ),
 ( 5.175159098176780326, 5.238775588674560169 ),
 .UNSPECIFIED. ) 
 CURVE ( )  GEOMETRIC_REPRESENTATION_ITEM ( )  RATIONAL_B_SPLINE_CURVE ( ( 1.000000000000000000, 0.9996627736123069319, 0.9996627736123069319, 1.000000000000000000 ) ) 
 REPRESENTATION_ITEM ( '' )  );
#705 = AXIS2_PLACEMENT_3D ( 'NONE', #1175, #377, #478 ) ;
#706 = CARTESIAN_POINT ( 'NONE',  ( 5.665559449951000026, 3.978865784914999981, 8.095278486141999963 ) ) ;
#707 = CIRCLE ( 'NONE', #885, 4.113264389309573943 ) ;
#708 = EDGE_LOOP ( 'NONE', ( #750, #268, #761, #626 ) ) ;
#709 = ORIENTED_EDGE ( 'NONE', *, *, #977, .F. ) ;
#710 = APPROVAL ( #103, 'UNSPECIFIED' ) ;
#711 = DIRECTION ( 'NONE',  ( 0.000000000000000000, 0.8660254037844383745, 0.5000000000000003331 ) ) ;
#712 = EDGE_CURVE ( 'NONE', #315, #135, #509, .T. ) ;
#713 = EDGE_CURVE ( 'NONE', #878, #982, #780, .T. ) ;
#714 = CARTESIAN_POINT ( 'NONE',  ( 6.511518196778290246, 3.089865784915000191, 6.688523800292180965 ) ) ;
#715 = ORIENTED_EDGE ( 'NONE', *, *, #758, .F. ) ;
#716 = ORIENTED_EDGE ( 'NONE', *, *, #308, .F. ) ;
#717 = CARTESIAN_POINT ( 'NONE',  ( 4.090559449950999849, 9.439865784914999836, 4.495278486142001206 ) ) ;
#718 = EDGE_CURVE ( 'NONE', #988, #503, #498, .T. ) ;
#719 = DATE_AND_TIME ( #746, #1018 ) ;
#720 = ORIENTED_EDGE ( 'NONE', *, *, #394, .T. ) ;
#721 = VERTEX_POINT ( 'NONE', #418 ) ;
#722 = CARTESIAN_POINT ( 'NONE',  ( 0.7767940306976149900, 3.089865784915000191, 6.688523800292180965 ) ) ;
#723 = ORIENTED_EDGE ( 'NONE', *, *, #1166, .F. ) ;
#724 = DIRECTION ( 'NONE',  ( 0.000000000000000000, 0.000000000000000000, 1.000000000000000000 ) ) ;
#725 = EDGE_CURVE ( 'NONE', #8, #922, #875, .T. ) ;
#726 = CARTESIAN_POINT ( 'NONE',  ( 4.090559449950999849, 9.439865784914999836, 10.89527848614200067 ) ) ;
#727 = ORIENTED_EDGE ( 'NONE', *, *, #105, .F. ) ;
#728 = AXIS2_PLACEMENT_3D ( 'NONE', #441, #1169, #238 ) ;
#729 = LINE ( 'NONE', #877, #331 ) ;
#730 = AXIS2_PLACEMENT_3D ( 'NONE', #42, #423, #983 ) ;
#731 = CARTESIAN_POINT ( 'NONE',  ( -1.409440550048999929, 3.978865784914999981, 6.845278486142000851 ) ) ;
#732 = ORIENTED_EDGE ( 'NONE', *, *, #99, .T. ) ;
#733 = LOCAL_TIME ( 14, 24, 36.00000000000000000, #814 ) ;
#734 = CARTESIAN_POINT ( 'NONE',  ( 0.000000000000000000, 0.000000000000000000, 0.000000000000000000 ) ) ;
#735 = CARTESIAN_POINT ( 'NONE',  ( -1.409440550048999929, 9.439865784914999836, 6.688523800292180965 ) ) ;
#736 = ORIENTED_EDGE ( 'NONE', *, *, #563, .F. ) ;
#737 = EDGE_CURVE ( 'NONE', #184, #846, #969, .T. ) ;
#738 = CYLINDRICAL_SURFACE ( 'NONE', #629, 2.800000000000000266 ) ;
#739 = PLANE ( 'NONE',  #230 ) ;
#740 = ORIENTED_EDGE ( 'NONE', *, *, #419, .F. ) ;
#741 = DIRECTION ( 'NONE',  ( 0.000000000000000000, 1.000000000000000000, 0.000000000000000000 ) ) ;
#742 = DIRECTION ( 'NONE',  ( 1.000000000000000000, 0.000000000000000000, 0.000000000000000000 ) ) ;
#743 = VERTEX_POINT ( 'NONE', #217 ) ;
#744 = FACE_OUTER_BOUND ( 'NONE', #795, .T. ) ;
#745 = CARTESIAN_POINT ( 'NONE',  ( 8.009289338111479140, 8.550865784914998713, 9.345278486141999963 ) ) ;
#746 = CALENDAR_DATE ( 2022, 7, 7 ) ;
#747 = CARTESIAN_POINT ( 'NONE',  ( 1.639764739672875615, 9.148666493339263184, 6.739870092160172632 ) ) ;
#748 = CARTESIAN_POINT ( 'NONE',  ( 0.5855600292815495989, 9.167481534666483967, 6.736552492731051167 ) ) ;
#749 = CIRCLE ( 'NONE', #388, 5.300000915179739813 ) ;
#750 = ORIENTED_EDGE ( 'NONE', *, *, #849, .T. ) ;
#751 = AXIS2_PLACEMENT_3D ( 'NONE', #683, #859, #27 ) ;
#752 = EDGE_CURVE ( 'NONE', #1191, #947, #704, .T. ) ;
#753 = AXIS2_PLACEMENT_3D ( 'NONE', #96, #641, #374 ) ;
#754 = DIRECTION ( 'NONE',  ( 0.000000000000000000, 0.000000000000000000, 1.000000000000000000 ) ) ;
#755 = CARTESIAN_POINT ( 'NONE',  ( 8.009289338111479140, 3.978865784914999981, 6.845278486142000851 ) ) ;
#756 = EDGE_LOOP ( 'NONE', ( #364, #138, #421, #727 ) ) ;
#757 = SHAPE_DEFINITION_REPRESENTATION ( #288, #508 ) ;
#758 = EDGE_CURVE ( 'NONE', #1191, #16, #409, .T. ) ;
#759 = CARTESIAN_POINT ( 'NONE',  ( 1.405415133531484617, 6.264865784915000013, 12.89527848614200067 ) ) ;
#760 = FACE_OUTER_BOUND ( 'NONE', #163, .T. ) ;
#761 = ORIENTED_EDGE ( 'NONE', *, *, #265, .T. ) ;
#762 = CARTESIAN_POINT ( 'NONE',  ( 6.775703766370509307, 6.264865784915000013, 3.295278486142001029 ) ) ;
#763 = CALENDAR_DATE ( 2022, 7, 7 ) ;
#764 = DIRECTION ( 'NONE',  ( -8.182656492607309109E-16, 0.000000000000000000, -1.000000000000000000 ) ) ;
#765 = EDGE_CURVE ( 'NONE', #372, #1082, #165, .T. ) ;
#766 = CARTESIAN_POINT ( 'NONE',  ( 7.404324869204379489, 3.089865784915000191, 9.502033171991824290 ) ) ;
#767 = ORIENTED_EDGE ( 'NONE', *, *, #1119, .T. ) ;
#768 = CARTESIAN_POINT ( 'NONE',  ( 0.1718295617905195583, 8.550865784914998713, 9.345278486141999963 ) ) ;
#769 = DIRECTION ( 'NONE',  ( 0.000000000000000000, 1.000000000000000000, 0.000000000000000000 ) ) ;
#770 = AXIS2_PLACEMENT_3D ( 'NONE', #483, #464, #180 ) ;
#771 = VECTOR ( 'NONE', #145, 1000.000000000000000 ) ;
#772 = PLANE ( 'NONE',  #633 ) ;
#773 = DIRECTION ( 'NONE',  ( 0.000000000000000000, 1.000000000000000000, 0.000000000000000000 ) ) ;
#774 = EDGE_LOOP ( 'NONE', ( #392, #528, #272, #1121 ) ) ;
#775 = CARTESIAN_POINT ( 'NONE',  ( -1.409440550048999929, 6.264865784915000013, 8.095278486141999963 ) ) ;
#776 = CARTESIAN_POINT ( 'NONE',  ( 1.405415133531489724, 6.264865784915000013, 3.295278486142001029 ) ) ;
#777 = DATE_TIME_ROLE ( 'classification_date' ) ;
#778 = DIRECTION ( 'NONE',  ( 0.000000000000000000, 1.000000000000000000, 0.000000000000000000 ) ) ;
#779 = DIRECTION ( 'NONE',  ( -1.000000000000000000, 0.000000000000000000, 0.000000000000000000 ) ) ;
#780 = B_SPLINE_CURVE_WITH_KNOTS ( 'NONE', 3,
 ( #604, #35, #513, #768 ),
 .UNSPECIFIED., .F., .F.,
 ( 4, 4 ),
 ( 0.000000000000000000, 1.000000000000000000 ),
 .UNSPECIFIED. ) ;
#781 = ORIENTED_EDGE ( 'NONE', *, *, #765, .F. ) ;
#782 = CARTESIAN_POINT ( 'NONE',  ( 1.669600703123709673, 9.439865784914999836, 6.688523800292180965 ) ) ;
#783 = CARTESIAN_POINT ( 'NONE',  ( 6.511518196778290246, 3.089865784915000191, 9.502033171991824290 ) ) ;
#784 = DIRECTION ( 'NONE',  ( 0.000000000000000000, 1.000000000000000000, 0.000000000000000000 ) ) ;
#785 = CARTESIAN_POINT ( 'NONE',  ( 0.7767940306976097720, 9.439865784914999836, 6.688523800292180965 ) ) ;
#786 = VERTEX_POINT ( 'NONE', #587 ) ;
#787 = DIRECTION ( 'NONE',  ( 0.000000000000000000, 0.000000000000000000, 1.000000000000000000 ) ) ;
#788 = CARTESIAN_POINT ( 'NONE',  ( 0.1718295617905195583, 8.550865784914998713, 9.345278486141999963 ) ) ;
#789 = ADVANCED_FACE ( 'NONE', ( #1040 ), #232, .F. ) ;
#790 = CONICAL_SURFACE ( 'NONE', #425, 4.113264389309574831, 0.5235987755982982605 ) ;
#791 = EDGE_CURVE ( 'NONE', #326, #1056, #236, .T. ) ;
#792 = CIRCLE ( 'NONE', #942, 1.574999999999999956 ) ;
#793 = DIRECTION ( 'NONE',  ( 0.000000000000000000, 0.000000000000000000, 1.000000000000000000 ) ) ;
#794 = ORIENTED_EDGE ( 'NONE', *, *, #928, .T. ) ;
#795 = EDGE_LOOP ( 'NONE', ( #907, #794, #620, #688 ) ) ;
#796 =( BOUNDED_CURVE ( )  B_SPLINE_CURVE ( 3, ( #980, #353, #1064, #347 ),
 .UNSPECIFIED., .F., .T. ) 
 B_SPLINE_CURVE_WITH_KNOTS ( ( 4, 4 ),
 ( 1.044409718505030060, 1.108026209002803908 ),
 .UNSPECIFIED. ) 
 CURVE ( )  GEOMETRIC_REPRESENTATION_ITEM ( )  RATIONAL_B_SPLINE_CURVE ( ( 1.000000000000000000, 0.9996627736123069319, 0.9996627736123069319, 1.000000000000000000 ) ) 
 REPRESENTATION_ITEM ( '' )  );
#797 = CARTESIAN_POINT ( 'NONE',  ( 4.090559449950999849, 3.089865784915000191, 8.095278486141999963 ) ) ;
#798 = EDGE_LOOP ( 'NONE', ( #117, #1049, #809, #477 ) ) ;
#799 = VERTEX_POINT ( 'NONE', #1034 ) ;
#800 = B_SPLINE_CURVE_WITH_KNOTS ( 'NONE', 3,
 ( #1139, #1132, #25, #766 ),
 .UNSPECIFIED., .F., .F.,
 ( 4, 4 ),
 ( 0.000000000000000000, 1.000000000000000000 ),
 .UNSPECIFIED. ) ;
#801 = UNCERTAINTY_MEASURE_WITH_UNIT (LENGTH_MEASURE( 1.000000000000000082E-05 ), #173, 'distance_accuracy_value', 'NONE');
#802 = CARTESIAN_POINT ( 'NONE',  ( 4.090559449950999849, 3.089865784915000191, 11.69527848614200138 ) ) ;
#803 = ORIENTED_EDGE ( 'NONE', *, *, #402, .T. ) ;
#804 = EDGE_CURVE ( 'NONE', #878, #947, #695, .T. ) ;
#805 = ORIENTED_EDGE ( 'NONE', *, *, #718, .F. ) ;
#806 = AXIS2_PLACEMENT_3D ( 'NONE', #319, #390, #29 ) ;
#807 = DIRECTION ( 'NONE',  ( 0.000000000000000000, -0.1736481776669245303, -0.9848077530122091305 ) ) ;
#808 = VECTOR ( 'NONE', #46, 1000.000000000000000 ) ;
#809 = ORIENTED_EDGE ( 'NONE', *, *, #159, .F. ) ;
#810 = ORIENTED_EDGE ( 'NONE', *, *, #649, .T. ) ;
#811 = LOCAL_TIME ( 14, 24, 36.00000000000000000, #1137 ) ;
#812 = CARTESIAN_POINT ( 'NONE',  ( 4.090559449950999849, 3.089865784915000191, 11.69527848614200138 ) ) ;
#813 = EDGE_CURVE ( 'NONE', #991, #135, #864, .T. ) ;
#814 = COORDINATED_UNIVERSAL_TIME_OFFSET ( 6, 0, .BEHIND. ) ;
#815 = DIRECTION ( 'NONE',  ( 0.000000000000000000, 1.000000000000000000, 0.000000000000000000 ) ) ;
#816 = EDGE_LOOP ( 'NONE', ( #292, #544, #107, #257 ) ) ;
#817 = ORIENTED_EDGE ( 'NONE', *, *, #507, .F. ) ;
#818 = DIRECTION ( 'NONE',  ( -1.000000000000000000, 0.000000000000000000, 0.000000000000000000 ) ) ;
#819 = DIRECTION ( 'NONE',  ( 0.000000000000000000, 0.000000000000000000, 1.000000000000000000 ) ) ;
#820 = DIRECTION ( 'NONE',  ( -1.000000000000000000, 0.000000000000000000, 0.000000000000000000 ) ) ;
#821 = CARTESIAN_POINT ( 'NONE',  ( 6.723049009522249264, 8.550865784914998713, 3.495277570962260771 ) ) ;
#822 = CARTESIAN_POINT ( 'NONE',  ( 1.458069890379749767, 3.978865784914999981, 12.69527940132173960 ) ) ;
#823 = EDGE_LOOP ( 'NONE', ( #953, #645, #40, #1153 ) ) ;
#824 = ADVANCED_FACE ( 'NONE', ( #240 ), #607, .F. ) ;
#825 = CARTESIAN_POINT ( 'NONE',  ( 1.611576828483333390, 8.852233194875491762, 6.792139280659738709 ) ) ;
#826 = AXIS2_PLACEMENT_3D ( 'NONE', #556, #194, #101 ) ;
#827 = ORIENTED_EDGE ( 'NONE', *, *, #522, .F. ) ;
#828 = CIRCLE ( 'NONE', #883, 2.800000000000000266 ) ;
#829 = DIRECTION ( 'NONE',  ( 1.000000000000000000, 0.000000000000000000, 0.000000000000000000 ) ) ;
#830 = AXIS2_PLACEMENT_3D ( 'NONE', #992, #162, #900 ) ;
#831 = CARTESIAN_POINT ( 'NONE',  ( 0.3844934160663546208, 3.657745551625379843, 6.788656324961646504 ) ) ;
#832 = EDGE_LOOP ( 'NONE', ( #611, #175, #531, #767 ) ) ;
#833 = PERSON_AND_ORGANIZATION ( #961, #923 ) ;
#834 = CARTESIAN_POINT ( 'NONE',  ( 8.203823839260575568, 8.550865784914998713, 3.495277570962260771 ) ) ;
#835 = VERTEX_POINT ( 'NONE', #775 ) ;
#836 = DIRECTION ( 'NONE',  ( 0.000000000000000000, -1.000000000000000000, 0.000000000000000000 ) ) ;
#837 = DIRECTION ( 'NONE',  ( -0.000000000000000000, 1.000000000000000000, 0.000000000000000000 ) ) ;
#838 = ORIENTED_EDGE ( 'NONE', *, *, #639, .F. ) ;
#839 = PERSON_AND_ORGANIZATION ( #961, #923 ) ;
#840 = CARTESIAN_POINT ( 'NONE',  ( 1.585065486677489588, 3.978865784914999981, 9.345278486141999963 ) ) ;
#841 = CARTESIAN_POINT ( 'NONE',  ( 7.404324869204379489, 3.089865784915000191, 9.502033171991824290 ) ) ;
#842 = ORIENTED_EDGE ( 'NONE', *, *, #1173, .T. ) ;
#843 = CARTESIAN_POINT ( 'NONE',  ( 0.7767940306976149900, 9.439865784914999836, 9.502033171991824290 ) ) ;
#844 = DIRECTION ( 'NONE',  ( -1.000000000000000000, 0.000000000000000000, 0.000000000000000000 ) ) ;
#845 = FACE_OUTER_BOUND ( 'NONE', #823, .T. ) ;
#846 = VERTEX_POINT ( 'NONE', #782 ) ;
#847 = B_SPLINE_CURVE_WITH_KNOTS ( 'NONE', 3,
 ( #9, #504, #499, #204 ),
 .UNSPECIFIED., .F., .F.,
 ( 4, 4 ),
 ( 0.0008926373332190540733, 0.003187973499179809662 ),
 .UNSPECIFIED. ) ;
#848 = AXIS2_PLACEMENT_3D ( 'NONE', #762, #517, #679 ) ;
#849 = EDGE_CURVE ( 'NONE', #991, #550, #623, .T. ) ;
#850 = FACE_OUTER_BOUND ( 'NONE', #338, .T. ) ;
#851 = CARTESIAN_POINT ( 'NONE',  ( 4.090559449950999849, 3.089865784915000191, 8.095278486141999963 ) ) ;
#852 = ORIENTED_EDGE ( 'NONE', *, *, #1026, .T. ) ;
#853 = CARTESIAN_POINT ( 'NONE',  ( 6.775703766370509307, 6.264865784915000013, 3.295278486142001029 ) ) ;
#854 = EDGE_CURVE ( 'NONE', #1082, #721, #327, .T. ) ;
#855 = EDGE_CURVE ( 'NONE', #1154, #315, #1053, .T. ) ;
#856 = CARTESIAN_POINT ( 'NONE',  ( -1.409440550048999929, 8.550865784914998713, 9.345278486141999963 ) ) ;
#857 = FACE_OUTER_BOUND ( 'NONE', #452, .T. ) ;
#858 = ORIENTED_EDGE ( 'NONE', *, *, #480, .T. ) ;
#859 = DIRECTION ( 'NONE',  ( 0.000000000000000000, 1.000000000000000000, 0.000000000000000000 ) ) ;
#860 = COORDINATED_UNIVERSAL_TIME_OFFSET ( 6, 0, .BEHIND. ) ;
#861 = CARTESIAN_POINT ( 'NONE',  ( 6.511518196778290246, 9.439865784914999836, 6.688523800292180965 ) ) ;
#862 = PLANE ( 'NONE',  #962 ) ;
#863 = ORIENTED_EDGE ( 'NONE', *, *, #599, .T. ) ;
#864 = LINE ( 'NONE', #129, #489 ) ;
#865 = AXIS2_PLACEMENT_3D ( 'NONE', #247, #975, #793 ) ;
#866 = VECTOR ( 'NONE', #711, 1000.000000000000114 ) ;
#867 = CARTESIAN_POINT ( 'NONE',  ( 1.458069890379749767, 3.978865784914999981, 12.69527940132173960 ) ) ;
#868 = ADVANCED_FACE ( 'NONE', ( #196 ), #212, .F. ) ;
#869 = CARTESIAN_POINT ( 'NONE',  ( 1.585065486677489588, 3.978865784914999981, 9.345278486141999963 ) ) ;
#870 = EDGE_LOOP ( 'NONE', ( #918, #805, #72, #888, #621 ) ) ;
#871 = CARTESIAN_POINT ( 'NONE',  ( 1.611576828483333390, 8.852233194875491762, 9.398417691624262105 ) ) ;
#872 = CARTESIAN_POINT ( 'NONE',  ( 4.090559449950999849, 3.089865784915000191, 8.095278486141999963 ) ) ;
#873 = CARTESIAN_POINT ( 'NONE',  ( -1.409440550048999929, 3.978865784914999981, 9.345278486141999963 ) ) ;
#874 = ORIENTED_EDGE ( 'NONE', *, *, #925, .T. ) ;
#875 = LINE ( 'NONE', #853, #297 ) ;
#876 = CARTESIAN_POINT ( 'NONE',  ( 8.009289338111479140, 8.550865784914998713, 9.345278486141999963 ) ) ;
#877 = CARTESIAN_POINT ( 'NONE',  ( 4.090559449950999849, 6.264865784915000013, 10.89527848614200067 ) ) ;
#878 = VERTEX_POINT ( 'NONE', #843 ) ;
#879 = FACE_OUTER_BOUND ( 'NONE', #411, .T. ) ;
#880 = VECTOR ( 'NONE', #106, 999.9999999999998863 ) ;
#881 = CIRCLE ( 'NONE', #88, 4.113264389309573943 ) ;
#882 = EDGE_CURVE ( 'NONE', #398, #283, #110, .T. ) ;
#883 = AXIS2_PLACEMENT_3D ( 'NONE', #797, #530, #49 ) ;
#884 = EDGE_CURVE ( 'NONE', #80, #8, #847, .T. ) ;
#885 = AXIS2_PLACEMENT_3D ( 'NONE', #43, #420, #514 ) ;
#886 = CC_DESIGN_APPROVAL ( #710, ( #14 ) ) ;
#887 = LINE ( 'NONE', #693, #446 ) ;
#888 = ORIENTED_EDGE ( 'NONE', *, *, #394, .F. ) ;
#889 = ORIENTED_EDGE ( 'NONE', *, *, #855, .F. ) ;
#890 = CARTESIAN_POINT ( 'NONE',  ( -1.409440550048999929, 8.550865784914998713, 6.845278486142000851 ) ) ;
#891 = ORIENTED_EDGE ( 'NONE', *, *, #547, .F. ) ;
#892 = DIRECTION ( 'NONE',  ( 1.000000000000000000, 0.000000000000000000, 0.000000000000000000 ) ) ;
#893 = VERTEX_POINT ( 'NONE', #218 ) ;
#894 = DIRECTION ( 'NONE',  ( 0.000000000000000000, 1.000000000000000000, 0.000000000000000000 ) ) ;
#895 = AXIS2_PLACEMENT_3D ( 'NONE', #1004, #176, #551 ) ;
#896 = CIRCLE ( 'NONE', #250, 2.800000000000000266 ) ;
#897 = AXIS2_PLACEMENT_3D ( 'NONE', #318, #114, #37 ) ;
#898 = CARTESIAN_POINT ( 'NONE',  ( 1.458069890379749767, 8.550865784914998713, 3.495277570962260771 ) ) ;
#899 = ORIENTED_EDGE ( 'NONE', *, *, #737, .T. ) ;
#900 = DIRECTION ( 'NONE',  ( -1.000000000000000000, 0.000000000000000000, 0.000000000000000000 ) ) ;
#901 = VERTEX_POINT ( 'NONE', #575 ) ;
#902 = PERSON_AND_ORGANIZATION ( #961, #923 ) ;
#903 = LINE ( 'NONE', #555, #1109 ) ;
#904 = ORIENTED_EDGE ( 'NONE', *, *, #884, .T. ) ;
#905 = DIRECTION ( 'NONE',  ( 0.000000000000000000, 1.000000000000000000, 0.000000000000000000 ) ) ;
#906 = CARTESIAN_POINT ( 'NONE',  ( 4.090559449950999849, 8.550865784914998713, 8.095278486141999963 ) ) ;
#907 = ORIENTED_EDGE ( 'NONE', *, *, #341, .F. ) ;
#908 = EDGE_CURVE ( 'NONE', #1145, #184, #189, .T. ) ;
#909 = APPLICATION_PROTOCOL_DEFINITION ( 'international standard', 'config_control_design', 1994, #1170 ) ;
#910 = DIRECTION ( 'NONE',  ( 0.000000000000000000, 0.000000000000000000, 1.000000000000000000 ) ) ;
#911 = ORIENTED_EDGE ( 'NONE', *, *, #2, .T. ) ;
#912 = LINE ( 'NONE', #373, #880 ) ;
#913 = CARTESIAN_POINT ( 'NONE',  ( 4.090559449950999849, 3.089865784915000191, 10.89527848614200067 ) ) ;
#914 = EDGE_LOOP ( 'NONE', ( #740, #987, #852, #1083 ) ) ;
#915 = EDGE_CURVE ( 'NONE', #372, #922, #306, .T. ) ;
#916 = PERSON_AND_ORGANIZATION ( #961, #923 ) ;
#917 = LINE ( 'NONE', #834, #1086 ) ;
#918 = ORIENTED_EDGE ( 'NONE', *, *, #943, .T. ) ;
#919 = AXIS2_PLACEMENT_3D ( 'NONE', #407, #312, #125 ) ;
#920 = CARTESIAN_POINT ( 'NONE',  ( 1.440342866115244869, 7.788869815252080109, 12.76194541031969187 ) ) ;
#921 = CARTESIAN_POINT ( 'NONE',  ( -1.409440550048999929, 3.978865784914999981, 9.345278486141999963 ) ) ;
#922 = VERTEX_POINT ( 'NONE', #776 ) ;
#923 = ORGANIZATION ( 'UNSPECIFIED', 'UNSPECIFIED', '' ) ;
#924 = DIRECTION ( 'NONE',  ( 0.000000000000000000, 1.000000000000000000, 0.000000000000000000 ) ) ;
#925 = EDGE_CURVE ( 'NONE', #300, #222, #792, .T. ) ;
#926 = DIRECTION ( 'NONE',  ( 0.000000000000000000, -1.000000000000000000, 0.000000000000000000 ) ) ;
#927 = ADVANCED_FACE ( 'NONE', ( #494 ), #1069, .T. ) ;
#928 = EDGE_CURVE ( 'NONE', #1133, #682, #582, .T. ) ;
#929 = VERTEX_POINT ( 'NONE', #1041 ) ;
#930 = CARTESIAN_POINT ( 'NONE',  ( 4.090559449950999849, 3.089865784915000191, 8.095278486141999963 ) ) ;
#931 = VERTEX_POINT ( 'NONE', #345 ) ;
#932 = PERSON_AND_ORGANIZATION ( #961, #923 ) ;
#933 = CARTESIAN_POINT ( 'NONE',  ( 6.775703766370509307, 6.264865784915000013, 3.295278486142001029 ) ) ;
#934 = ADVANCED_FACE ( 'NONE', ( #241 ), #224, .F. ) ;
#935 = FACE_OUTER_BOUND ( 'NONE', #914, .T. ) ;
#936 = ORIENTED_EDGE ( 'NONE', *, *, #219, .T. ) ;
#937 = FACE_OUTER_BOUND ( 'NONE', #1183, .T. ) ;
#938 = AXIS2_PLACEMENT_3D ( 'NONE', #946, #410, #515 ) ;
#939 = LINE ( 'NONE', #491, #228 ) ;
#940 = CIRCLE ( 'NONE', #69, 5.500000000000000000 ) ;
#941 = VERTEX_POINT ( 'NONE', #876 ) ;
#942 = AXIS2_PLACEMENT_3D ( 'NONE', #1135, #769, #400 ) ;
#943 = EDGE_CURVE ( 'NONE', #21, #503, #1088, .T. ) ;
#944 = LOCAL_TIME ( 14, 24, 36.00000000000000000, #1087 ) ;
#945 = CARTESIAN_POINT ( 'NONE',  ( 6.890559449950999671, 9.439865784914999836, 8.095278486141999963 ) ) ;
#946 = CARTESIAN_POINT ( 'NONE',  ( 4.090559449950999849, 3.978865784914999981, 8.095278486141999963 ) ) ;
#947 = VERTEX_POINT ( 'NONE', #970 ) ;
#948 = DIRECTION ( 'NONE',  ( 0.000000000000000000, 1.000000000000000000, 0.000000000000000000 ) ) ;
#949 = CARTESIAN_POINT ( 'NONE',  ( 4.090559449950999849, 6.264865784915000013, 10.89527848614200067 ) ) ;
#950 = EDGE_CURVE ( 'NONE', #901, #997, #608, .T. ) ;
#951 = DIRECTION ( 'NONE',  ( 0.000000000000000000, 0.000000000000000000, 1.000000000000000000 ) ) ;
#952 = CARTESIAN_POINT ( 'NONE',  ( 7.404324869204389259, 9.439865784914999836, 6.688523800292180965 ) ) ;
#953 = ORIENTED_EDGE ( 'NONE', *, *, #855, .T. ) ;
#954 = CARTESIAN_POINT ( 'NONE',  ( 1.639764739672875615, 9.148666493339257855, 9.450686880123827294 ) ) ;
#955 = B_SPLINE_CURVE_WITH_KNOTS ( 'NONE', 3,
 ( #867, #1042, #957, #759 ),
 .UNSPECIFIED., .F., .F.,
 ( 4, 4 ),
 ( 0.0008926373332190460502, 0.003187973499179810096 ),
 .UNSPECIFIED. ) ;
#956 = CARTESIAN_POINT ( 'NONE',  ( 4.090559449950999849, 8.550865784914998713, 8.095278486141999963 ) ) ;
#957 = CARTESIAN_POINT ( 'NONE',  ( 1.422794718101539901, 5.502861872484887229, 12.82861178224196053 ) ) ;
#958 = DIRECTION ( 'NONE',  ( 0.000000000000000000, -0.9961946980917455452, 0.08715574274765824914 ) ) ;
#959 = EDGE_LOOP ( 'NONE', ( #77, #1085, #1103, #150 ) ) ;
#960 = CARTESIAN_POINT ( 'NONE',  ( -1.409440550048999929, 9.439865784914999836, 9.502033171991824290 ) ) ;
#961 = PERSON ( 'UNSPECIFIED', 'UNSPECIFIED', 'UNSPECIFIED', ('UNSPECIFIED'), ('UNSPECIFIED'), ('UNSPECIFIED') ) ;
#962 = AXIS2_PLACEMENT_3D ( 'NONE', #320, #681, #958 ) ;
#963 = AXIS2_PLACEMENT_3D ( 'NONE', #956, #28, #406 ) ;
#964 = CIRCLE ( 'NONE', #191, 2.800000000000000266 ) ;
#965 = CARTESIAN_POINT ( 'NONE',  ( 7.690559449950999493, 3.089865784915000191, 8.095278486141999963 ) ) ;
#966 = CC_DESIGN_PERSON_AND_ORGANIZATION_ASSIGNMENT ( #902, #90, ( #14 ) ) ;
#967 = CARTESIAN_POINT ( 'NONE',  ( 1.405415133531484617, 6.264865784915000013, 12.89527848614200067 ) ) ;
#968 = ORIENTED_EDGE ( 'NONE', *, *, #624, .T. ) ;
#969 = LINE ( 'NONE', #322, #691 ) ;
#970 = CARTESIAN_POINT ( 'NONE',  ( 1.669600703123709673, 9.439865784914999836, 9.502033171991824290 ) ) ;
#971 = CARTESIAN_POINT ( 'NONE',  ( 4.090559449950999849, 8.550865784914998713, 8.095278486141999963 ) ) ;
#972 = ORIENTED_EDGE ( 'NONE', *, *, #692, .F. ) ;
#973 = ADVANCED_FACE ( 'NONE', ( #879 ), #53, .T. ) ;
#974 = CARTESIAN_POINT ( 'NONE',  ( 6.569542071418661422, 3.677498374954504268, 9.398417691624263881 ) ) ;
#975 = DIRECTION ( 'NONE',  ( 0.000000000000000000, 1.000000000000000000, 0.000000000000000000 ) ) ;
#976 = VERTEX_POINT ( 'NONE', #246 ) ;
#977 = EDGE_CURVE ( 'NONE', #571, #492, #252, .T. ) ;
#978 = CLOSED_SHELL ( 'NONE', ( #48, #245, #32, #113, #701, #1090, #185, #91, #17, #1158, #613, #1019, #81, #1163, #1179, #668, #126, #500, #431, #147, #267, #444, #868, #1136, #927, #521, #789, #934, #824, #259, #277, #1106, #684, #140, #973, #589, #630 ) ) ;
#979 = CIRCLE ( 'NONE', #1186, 5.500000000000000000 ) ;
#980 = CARTESIAN_POINT ( 'NONE',  ( 6.511518196778290246, 9.439865784914999836, 9.502033171991824290 ) ) ;
#981 = ORIENTED_EDGE ( 'NONE', *, *, #663, .F. ) ;
#982 = VERTEX_POINT ( 'NONE', #788 ) ;
#983 = DIRECTION ( 'NONE',  ( 0.000000000000000000, 0.000000000000000000, 1.000000000000000000 ) ) ;
#984 = EDGE_CURVE ( 'NONE', #283, #835, #1155, .T. ) ;
#985 = DIRECTION ( 'NONE',  ( 0.000000000000000000, 1.000000000000000000, 0.000000000000000000 ) ) ;
#986 = B_SPLINE_CURVE_WITH_KNOTS ( 'NONE', 3,
 ( #627, #831, #1182, #722 ),
 .UNSPECIFIED., .F., .F.,
 ( 4, 4 ),
 ( 0.000000000000000000, 1.000000000000000000 ),
 .UNSPECIFIED. ) ;
#987 = ORIENTED_EDGE ( 'NONE', *, *, #316, .T. ) ;
#988 = VERTEX_POINT ( 'NONE', #532 ) ;
#989 = FACE_OUTER_BOUND ( 'NONE', #665, .T. ) ;
#990 = CARTESIAN_POINT ( 'NONE',  ( 6.541354160229124304, 3.381065076490736843, 6.739870092160172632 ) ) ;
#991 = VERTEX_POINT ( 'NONE', #783 ) ;
#992 = CARTESIAN_POINT ( 'NONE',  ( 4.090559449950999849, 8.550865784914998713, 8.095278486141999963 ) ) ;
#993 = CIRCLE ( 'NONE', #313, 3.600000000000000977 ) ;
#994 = DIRECTION ( 'NONE',  ( 1.000000000000000000, 0.000000000000000000, 0.000000000000000000 ) ) ;
#995 = AXIS2_PLACEMENT_3D ( 'NONE', #872, #784, #124 ) ;
#996 = CARTESIAN_POINT ( 'NONE',  ( 6.723049009522254593, 3.978865784914999981, 12.69527940132173960 ) ) ;
#997 = VERTEX_POINT ( 'NONE', #440 ) ;
#998 = EDGE_CURVE ( 'NONE', #682, #550, #369, .T. ) ;
#999 = CARTESIAN_POINT ( 'NONE',  ( 0.3839385666778850625, 8.871148201333150851, 6.788804054680992905 ) ) ;
#1000 = CARTESIAN_POINT ( 'NONE',  ( 1.585065486677489588, 3.978865784914999981, 6.845278486142000851 ) ) ;
#1001 = ORIENTED_EDGE ( 'NONE', *, *, #791, .F. ) ;
#1002 = CARTESIAN_POINT ( 'NONE',  ( 1.585065486677489588, 8.550865784914998713, 9.345278486141999963 ) ) ;
#1003 = CARTESIAN_POINT ( 'NONE',  ( 4.090559449950999849, 6.264865784915000013, 8.095278486141999963 ) ) ;
#1004 = CARTESIAN_POINT ( 'NONE',  ( 7.690559449950999493, 3.089865784915000191, 8.095278486141999963 ) ) ;
#1005 = CARTESIAN_POINT ( 'NONE',  ( 4.090559449950999849, 9.439865784914999836, 8.095278486141999963 ) ) ;
#1006 = EDGE_LOOP ( 'NONE', ( #670, #781, #736, #838 ) ) ;
#1007 = APPROVAL_ROLE ( '' ) ;
#1008 = FACE_BOUND ( 'NONE', #155, .T. ) ;
#1009 = ORIENTED_EDGE ( 'NONE', *, *, #201, .F. ) ;
#1010 = CARTESIAN_POINT ( 'NONE',  ( 1.405415133531484617, 6.264865784915000013, 12.89527848614200067 ) ) ;
#1011 = CARTESIAN_POINT ( 'NONE',  ( 5.665559449951000026, 8.550865784914998713, 8.095278486141999963 ) ) ;
#1012 = VERTEX_POINT ( 'NONE', #1058 ) ;
#1013 = MECHANICAL_CONTEXT ( 'NONE', #157, 'mechanical' ) ;
#1014 = DIRECTION ( 'NONE',  ( 0.000000000000000000, 1.000000000000000000, 0.000000000000000000 ) ) ;
#1015 = EDGE_LOOP ( 'NONE', ( #94, #192, #45, #34 ) ) ;
#1016 = CIRCLE ( 'NONE', #164, 2.800000000000000266 ) ;
#1017 = CYLINDRICAL_SURFACE ( 'NONE', #87, 2.800000000000000266 ) ;
#1018 = LOCAL_TIME ( 14, 24, 36.00000000000000000, #383 ) ;
#1019 = ADVANCED_FACE ( 'NONE', ( #340 ), #612, .F. ) ;
#1020 = DIRECTION ( 'NONE',  ( 0.000000000000000000, 0.000000000000000000, 1.000000000000000000 ) ) ;
#1021 = CARTESIAN_POINT ( 'NONE',  ( 6.775703766370509307, 6.264865784915000013, 3.295278486142001029 ) ) ;
#1022 = ORIENTED_EDGE ( 'NONE', *, *, #308, .T. ) ;
#1023 = CARTESIAN_POINT ( 'NONE',  ( 4.090559449950999849, 3.089865784915000191, 8.095278486141999963 ) ) ;
#1024 = EDGE_CURVE ( 'NONE', #465, #976, #1035, .T. ) ;
#1025 = DIRECTION ( 'NONE',  ( 0.000000000000000000, 0.000000000000000000, 1.000000000000000000 ) ) ;
#1026 = EDGE_CURVE ( 'NONE', #497, #893, #600, .T. ) ;
#1027 = ORIENTED_EDGE ( 'NONE', *, *, #480, .F. ) ;
#1028 = DIRECTION ( 'NONE',  ( 0.000000000000000000, 0.000000000000000000, 1.000000000000000000 ) ) ;
#1029 = AXIS2_PLACEMENT_3D ( 'NONE', #851, #773, #221 ) ;
#1030 = FACE_OUTER_BOUND ( 'NONE', #482, .T. ) ;
#1031 = CIRCLE ( 'NONE', #865, 4.113264389309573943 ) ;
#1032 = ORIENTED_EDGE ( 'NONE', *, *, #1059, .T. ) ;
#1033 = EDGE_CURVE ( 'NONE', #465, #300, #183, .T. ) ;
#1034 = CARTESIAN_POINT ( 'NONE',  ( 8.009289338111479140, 3.978865784914999981, 6.845278486142000851 ) ) ;
#1035 = CIRCLE ( 'NONE', #1188, 1.574999999999999956 ) ;
#1036 = CC_DESIGN_APPROVAL ( #30, ( #602 ) ) ;
#1037 = CARTESIAN_POINT ( 'NONE',  ( 4.090559449950999849, 6.264865784915000013, 8.095278486141999963 ) ) ;
#1038 = FACE_OUTER_BOUND ( 'NONE', #540, .T. ) ;
#1039 = ORIENTED_EDGE ( 'NONE', *, *, #1026, .F. ) ;
#1040 = FACE_OUTER_BOUND ( 'NONE', #1171, .T. ) ;
#1041 = CARTESIAN_POINT ( 'NONE',  ( 6.596053413224509221, 8.550865784914998713, 9.345278486141999963 ) ) ;
#1042 = CARTESIAN_POINT ( 'NONE',  ( 1.440342866115250198, 4.740861754577914589, 12.76194541031969187 ) ) ;
#1043 = PLANE ( 'NONE',  #330 ) ;
#1044 = ORIENTED_EDGE ( 'NONE', *, *, #226, .T. ) ;
#1045 = CARTESIAN_POINT ( 'NONE',  ( -1.409440550048999929, 8.550865784914998713, 6.845278486142000851 ) ) ;
#1046 = CARTESIAN_POINT ( 'NONE',  ( -1.409440550048999929, 8.550865784914998713, 9.345278486141999963 ) ) ;
#1047 = DIRECTION ( 'NONE',  ( 0.000000000000000000, -1.000000000000000000, 0.000000000000000000 ) ) ;
#1048 = CARTESIAN_POINT ( 'NONE',  ( 2.515559449950999671, 8.550865784914998713, 8.095278486141999963 ) ) ;
#1049 = ORIENTED_EDGE ( 'NONE', *, *, #591, .F. ) ;
#1050 = CARTESIAN_POINT ( 'NONE',  ( 6.596053413224509221, 3.978865784914999981, 9.345278486141999963 ) ) ;
#1051 = CIRCLE ( 'NONE', #408, 4.113264389309573943 ) ;
#1052 = CARTESIAN_POINT ( 'NONE',  ( 8.203823839260575568, 8.550865784914998713, 12.69527940132173960 ) ) ;
#1053 = CIRCLE ( 'NONE', #130, 3.600000000000000977 ) ;
#1054 = CONICAL_SURFACE ( 'NONE', #753, 5.500000000000000000, 0.08726646259971625186 ) ;
#1055 = DIRECTION ( 'NONE',  ( 0.000000000000000000, -0.9848077530122091305, 0.1736481776669245303 ) ) ;
#1056 = VERTEX_POINT ( 'NONE', #1000 ) ;
#1057 = DIRECTION ( 'NONE',  ( 1.000000000000000000, 0.000000000000000000, 0.000000000000000000 ) ) ;
#1058 = CARTESIAN_POINT ( 'NONE',  ( 6.596053413224509221, 3.978865784914999981, 6.845278486142000851 ) ) ;
#1059 = EDGE_CURVE ( 'NONE', #976, #465, #146, .T. ) ;
#1060 = DIRECTION ( 'NONE',  ( 1.000000000000000000, 0.000000000000000000, 0.000000000000000000 ) ) ;
#1061 = ORIENTED_EDGE ( 'NONE', *, *, #329, .F. ) ;
#1062 = EDGE_CURVE ( 'NONE', #315, #694, #1078, .T. ) ;
#1063 = ORIENTED_EDGE ( 'NONE', *, *, #1151, .F. ) ;
#1064 = CARTESIAN_POINT ( 'NONE',  ( 6.569542071418666751, 8.852233194875491762, 9.398417691624262105 ) ) ;
#1065 = ORIENTED_EDGE ( 'NONE', *, *, #487, .T. ) ;
#1066 = ORIENTED_EDGE ( 'NONE', *, *, #382, .T. ) ;
#1067 = DIRECTION ( 'NONE',  ( 0.000000000000000000, -0.1736481776669274169, 0.9848077530122085754 ) ) ;
#1068 = CONICAL_SURFACE ( 'NONE', #33, 5.500000000000000000, 0.08726646259971625186 ) ;
#1069 = CONICAL_SURFACE ( 'NONE', #526, 5.500000000000000000, 0.08726646259971625186 ) ;
#1070 = AXIS2_PLACEMENT_3D ( 'NONE', #447, #285, #454 ) ;
#1071 = CARTESIAN_POINT ( 'NONE',  ( -1.409440550048999929, 8.550865784914998713, 6.845278486142000851 ) ) ;
#1072 = EDGE_LOOP ( 'NONE', ( #262, #460, #1065, #1176 ) ) ;
#1073 = DIRECTION ( 'NONE',  ( 0.000000000000000000, 1.000000000000000000, 0.000000000000000000 ) ) ;
#1074 = EDGE_CURVE ( 'NONE', #835, #931, #352, .T. ) ;
#1075 = DIRECTION ( 'NONE',  ( 0.000000000000000000, 1.000000000000000000, 0.000000000000000000 ) ) ;
#1076 = ORIENTED_EDGE ( 'NONE', *, *, #950, .F. ) ;
#1077 = ORIENTED_EDGE ( 'NONE', *, *, #624, .F. ) ;
#1078 = LINE ( 'NONE', #812, #866 ) ;
#1079 = APPROVAL ( #1096, 'UNSPECIFIED' ) ;
#1080 = CALENDAR_DATE ( 2022, 7, 7 ) ;
#1081 = CARTESIAN_POINT ( 'NONE',  ( 7.404324869204389259, 9.439865784914999836, 6.688523800292180965 ) ) ;
#1082 = VERTEX_POINT ( 'NONE', #822 ) ;
#1083 = ORIENTED_EDGE ( 'NONE', *, *, #362, .T. ) ;
#1084 = FACE_BOUND ( 'NONE', #375, .T. ) ;
#1085 = ORIENTED_EDGE ( 'NONE', *, *, #984, .F. ) ;
#1086 = VECTOR ( 'NONE', #197, 1000.000000000000000 ) ;
#1087 = COORDINATED_UNIVERSAL_TIME_OFFSET ( 6, 0, .BEHIND. ) ;
#1088 = CIRCLE ( 'NONE', #730, 2.800000000000000266 ) ;
#1089 = CARTESIAN_POINT ( 'NONE',  ( 6.758324181800454689, 5.502861872484887229, 3.361945190042041176 ) ) ;
#1090 = ADVANCED_FACE ( 'NONE', ( #258 ), #1172, .F. ) ;
#1091 = B_SPLINE_CURVE_WITH_KNOTS ( 'NONE', 3,
 ( #996, #1196, #357, #266 ),
 .UNSPECIFIED., .F., .F.,
 ( 4, 4 ),
 ( 0.0008926373332190460502, 0.003187973499179810096 ),
 .UNSPECIFIED. ) ;
#1092 = ORIENTED_EDGE ( 'NONE', *, *, #511, .F. ) ;
#1093 = DIRECTION ( 'NONE',  ( 0.000000000000000000, 0.000000000000000000, 1.000000000000000000 ) ) ;
#1094 = DIRECTION ( 'NONE',  ( 1.000000000000000000, 0.000000000000000000, 0.000000000000000000 ) ) ;
#1095 = EDGE_LOOP ( 'NONE', ( #610, #574, #1101, #239, #858 ) ) ;
#1096 = APPROVAL_STATUS ( 'not_yet_approved' ) ;
#1097 = CYLINDRICAL_SURFACE ( 'NONE', #576, 1.574999999999999956 ) ;
#1098 = PRODUCT_DEFINITION ( 'UNKNOWN', '', #14, #346 ) ;
#1099 = DIRECTION ( 'NONE',  ( 0.000000000000000000, 1.000000000000000000, 0.000000000000000000 ) ) ;
#1100 = CARTESIAN_POINT ( 'NONE',  ( 4.090559449950999849, 3.978865784914999981, 8.095278486141999963 ) ) ;
#1101 = ORIENTED_EDGE ( 'NONE', *, *, #950, .T. ) ;
#1102 = CARTESIAN_POINT ( 'NONE',  ( 6.740776033786749721, 4.740861754577914589, 3.428611561964310717 ) ) ;
#1103 = ORIENTED_EDGE ( 'NONE', *, *, #882, .F. ) ;
#1104 = DIRECTION ( 'NONE',  ( 0.000000000000000000, 1.000000000000000000, 0.000000000000000000 ) ) ;
#1105 = CARTESIAN_POINT ( 'NONE',  ( 7.797180333224119408, 8.871148201333129535, 9.401752917603023008 ) ) ;
#1106 = ADVANCED_FACE ( 'NONE', ( #539 ), #739, .T. ) ;
#1107 = PERSON_AND_ORGANIZATION_ROLE ( 'creator' ) ;
#1108 = CARTESIAN_POINT ( 'NONE',  ( 6.596053413224509221, 3.978865784914999981, 9.345278486141999963 ) ) ;
#1109 = VECTOR ( 'NONE', #742, 1000.000000000000000 ) ;
#1110 = CARTESIAN_POINT ( 'NONE',  ( 4.090559449950999849, 6.264865784915000013, 8.095278486141999963 ) ) ;
#1111 = AXIS2_PLACEMENT_3D ( 'NONE', #59, #435, #1165 ) ;
#1112 = VERTEX_POINT ( 'NONE', #546 ) ;
#1113 = APPROVAL_PERSON_ORGANIZATION ( #225, #30, #583 ) ;
#1114 = CARTESIAN_POINT ( 'NONE',  ( 1.440342866115250198, 4.740861754577914589, 3.428611561964310717 ) ) ;
#1115 = CARTESIAN_POINT ( 'NONE',  ( 4.090559449950999849, 3.978865784914999981, 8.095278486141999963 ) ) ;
#1116 = CARTESIAN_POINT ( 'NONE',  ( 4.090559449950999849, 3.089865784915000191, 8.095278486141999963 ) ) ;
#1117 = ORIENTED_EDGE ( 'NONE', *, *, #402, .F. ) ;
#1118 = CARTESIAN_POINT ( 'NONE',  ( 6.541354160229124304, 9.148666493339257855, 6.739870092160172632 ) ) ;
#1119 = EDGE_CURVE ( 'NONE', #997, #534, #1156, .T. ) ;
#1120 = CARTESIAN_POINT ( 'NONE',  ( 4.090559449950999849, 8.550865784914998713, 8.095278486141999963 ) ) ;
#1121 = ORIENTED_EDGE ( 'NONE', *, *, #655, .F. ) ;
#1122 = CARTESIAN_POINT ( 'NONE',  ( 1.585065486677489588, 3.978865784914999981, 6.845278486142000851 ) ) ;
#1123 = VECTOR ( 'NONE', #829, 1000.000000000000000 ) ;
#1124 = EDGE_CURVE ( 'NONE', #654, #404, #986, .T. ) ;
#1125 = DIRECTION ( 'NONE',  ( 0.000000000000000000, 0.08715574274765824914, -0.9961946980917455452 ) ) ;
#1126 = VECTOR ( 'NONE', #397, 1000.000000000000000 ) ;
#1127 = ORIENTED_EDGE ( 'NONE', *, *, #854, .T. ) ;
#1128 = EDGE_CURVE ( 'NONE', #1012, #799, #1193, .T. ) ;
#1129 = CARTESIAN_POINT ( 'NONE',  ( 4.090559449950999849, 3.978865784914999981, 8.095278486141999963 ) ) ;
#1130 = VECTOR ( 'NONE', #227, 1000.000000000000000 ) ;
#1131 = DIRECTION ( 'NONE',  ( 0.000000000000000000, -1.000000000000000000, 0.000000000000000000 ) ) ;
#1132 = CARTESIAN_POINT ( 'NONE',  ( 7.796625483835620152, 3.657745551625315006, 9.401900647322367632 ) ) ;
#1133 = VERTEX_POINT ( 'NONE', #913 ) ;
#1134 = CARTESIAN_POINT ( 'NONE',  ( 6.541354160229124304, 3.381065076490736843, 9.450686880123829070 ) ) ;
#1135 = CARTESIAN_POINT ( 'NONE',  ( 4.090559449950999849, 3.978865784914999981, 8.095278486141999963 ) ) ;
#1136 = ADVANCED_FACE ( 'NONE', ( #279 ), #1054, .T. ) ;
#1137 = COORDINATED_UNIVERSAL_TIME_OFFSET ( 6, 0, .BEHIND. ) ;
#1138 = CARTESIAN_POINT ( 'NONE',  ( 4.090559449950999849, 3.978865784914999981, 10.89527848614200067 ) ) ;
#1139 = CARTESIAN_POINT ( 'NONE',  ( 8.009289338111486245, 3.978865784914999981, 9.345278486141999963 ) ) ;
#1140 = ORIENTED_EDGE ( 'NONE', *, *, #453, .F. ) ;
#1141 = DIRECTION ( 'NONE',  ( -1.000000000000000000, 0.000000000000000000, 0.000000000000000000 ) ) ;
#1142 = DIRECTION ( 'NONE',  ( 1.000000000000000000, 0.000000000000000000, 0.000000000000000000 ) ) ;
#1143 = CARTESIAN_POINT ( 'NONE',  ( 6.511518196778290246, 3.089865784915000191, 6.688523800292180965 ) ) ;
#1144 = CONICAL_SURFACE ( 'NONE', #50, 3.600000000000000977, 0.5235987755982987046 ) ;
#1145 = VERTEX_POINT ( 'NONE', #717 ) ;
#1146 = CARTESIAN_POINT ( 'NONE',  ( -1.409440550048999929, 8.550865784914998713, 6.845278486142000851 ) ) ;
#1147 = CIRCLE ( 'NONE', #705, 4.113264389309573943 ) ;
#1148 = CARTESIAN_POINT ( 'NONE',  ( -1.409440550048999929, 6.264865784915000013, 8.095278486141999963 ) ) ;
#1149 = AXIS2_PLACEMENT_3D ( 'NONE', #18, #413, #567 ) ;
#1150 =( GEOMETRIC_REPRESENTATION_CONTEXT ( 3 ) GLOBAL_UNCERTAINTY_ASSIGNED_CONTEXT ( ( #801 ) ) GLOBAL_UNIT_ASSIGNED_CONTEXT ( ( #173, #264, #376 ) ) REPRESENTATION_CONTEXT ( 'NONE', 'WORKASPACE' ) );
#1151 = EDGE_CURVE ( 'NONE', #492, #682, #964, .T. ) ;
#1152 = CARTESIAN_POINT ( 'NONE',  ( 1.440342866115250198, 7.788869815252080109, 3.428611561964310717 ) ) ;
#1153 = ORIENTED_EDGE ( 'NONE', *, *, #487, .F. ) ;
#1154 = VERTEX_POINT ( 'NONE', #73 ) ;
#1155 = LINE ( 'NONE', #1148, #207 ) ;
#1156 = B_SPLINE_CURVE_WITH_KNOTS ( 'NONE', 3,
 ( #366, #360, #177, #467 ),
 .UNSPECIFIED., .F., .F.,
 ( 4, 4 ),
 ( 0.0008926373332190540733, 0.003187973499179809662 ),
 .UNSPECIFIED. ) ;
#1157 = DIRECTION ( 'NONE',  ( 0.000000000000000000, 0.000000000000000000, 1.000000000000000000 ) ) ;
#1158 = ADVANCED_FACE ( 'NONE', ( #989 ), #449, .T. ) ;
#1159 = EDGE_LOOP ( 'NONE', ( #874, #168 ) ) ;
#1160 = ORIENTED_EDGE ( 'NONE', *, *, #725, .F. ) ;
#1161 = DIRECTION ( 'NONE',  ( 1.000000000000000000, 0.000000000000000000, 0.000000000000000000 ) ) ;
#1162 = EDGE_LOOP ( 'NONE', ( #429, #520, #378, #160 ) ) ;
#1163 = ADVANCED_FACE ( 'NONE', ( #1084, #156, #535, #270 ), #634, .F. ) ;
#1164 = ORIENTED_EDGE ( 'NONE', *, *, #473, .T. ) ;
#1165 = DIRECTION ( 'NONE',  ( 0.000000000000000000, 0.000000000000000000, -1.000000000000000000 ) ) ;
#1166 = EDGE_CURVE ( 'NONE', #941, #442, #242, .T. ) ;
#1167 = AXIS2_PLACEMENT_3D ( 'NONE', #116, #415, #779 ) ;
#1168 = AXIS2_PLACEMENT_3D ( 'NONE', #619, #702, #139 ) ;
#1169 = DIRECTION ( 'NONE',  ( 0.000000000000000000, 1.000000000000000000, 0.000000000000000000 ) ) ;
#1170 = APPLICATION_CONTEXT ( 'configuration controlled 3d designs of mechanical parts and assemblies' ) ;
#1171 = EDGE_LOOP ( 'NONE', ( #904, #417, #61, #1027 ) ) ;
#1172 = CYLINDRICAL_SURFACE ( 'NONE', #538, 2.800000000000000266 ) ;
#1173 = EDGE_CURVE ( 'NONE', #878, #442, #541, .T. ) ;
#1174 = CALENDAR_DATE ( 2022, 7, 7 ) ;
#1175 = CARTESIAN_POINT ( 'NONE',  ( 4.090559449950999849, 8.550865784914998713, 8.095278486141999963 ) ) ;
#1176 = ORIENTED_EDGE ( 'NONE', *, *, #977, .T. ) ;
#1177 = DIRECTION ( 'NONE',  ( 0.000000000000000000, 1.000000000000000000, 0.000000000000000000 ) ) ;
#1178 = ORIENTED_EDGE ( 'NONE', *, *, #908, .T. ) ;
#1179 = ADVANCED_FACE ( 'NONE', ( #1195 ), #637, .F. ) ;
#1180 = CARTESIAN_POINT ( 'NONE',  ( 4.090559449950999849, 9.439865784914999836, 8.095278486141999963 ) ) ;
#1181 = CARTESIAN_POINT ( 'NONE',  ( 4.090559449950999849, 6.264865784915000013, 8.095278486141999963 ) ) ;
#1182 = CARTESIAN_POINT ( 'NONE',  ( 0.5861482390353851546, 3.361412218292044951, 6.736404763011707431 ) ) ;
#1183 = EDGE_LOOP ( 'NONE', ( #1066, #732, #216, #348 ) ) ;
#1184 = VECTOR ( 'NONE', #229, 1000.000000000000000 ) ;
#1185 = MANIFOLD_SOLID_BREP ( 'NONE', #978 ) ;
#1186 = AXIS2_PLACEMENT_3D ( 'NONE', #1189, #1014, #457 ) ;
#1187 = PERSON_AND_ORGANIZATION_ROLE ( 'design_owner' ) ;
#1188 = AXIS2_PLACEMENT_3D ( 'NONE', #906, #894, #818 ) ;
#1189 = CARTESIAN_POINT ( 'NONE',  ( 4.090559449950999849, 6.264865784915000013, 8.095278486141999963 ) ) ;
#1190 = VECTOR ( 'NONE', #1094, 1000.000000000000000 ) ;
#1191 = VERTEX_POINT ( 'NONE', #1002 ) ;
#1192 = CARTESIAN_POINT ( 'NONE',  ( 1.458069890379749767, 8.550865784914998713, 12.69527940132173960 ) ) ;
#1193 = LINE ( 'NONE', #731, #1190 ) ;
#1194 = ORIENTED_EDGE ( 'NONE', *, *, #639, .T. ) ;
#1195 = FACE_OUTER_BOUND ( 'NONE', #62, .T. ) ;
#1196 = CARTESIAN_POINT ( 'NONE',  ( 6.740776033786755050, 4.740861754577914589, 12.76194541031969187 ) ) ;
ENDSEC;
END-ISO-10303-21;
